<?xml version="1.0" encoding="utf-8"?>
<!-- Generator: Adobe Illustrator 18.0.0, SVG Export Plug-In . SVG Version: 6.00 Build 0)  -->
<!DOCTYPE svg PUBLIC "-//W3C//DTD SVG 1.1//EN" "http://www.w3.org/Graphics/SVG/1.1/DTD/svg11.dtd">
<svg version="1.1" id="Layer_1" xmlns="http://www.w3.org/2000/svg" xmlns:xlink="http://www.w3.org/1999/xlink" x="0px" y="0px"
	 viewBox="0 0 792 792" enable-background="new 0 0 792 792" xml:space="preserve">
<g>
	<path fill="#5542E2" d="M313.1,401.9c0,0-32.7-110.5,72.5-368.3c0,0,0.9-1.6-0.8-2.2c-1.6-0.6-2.4,1.1-2.4,1.1
		C274.3,278.2,270.6,377.1,270.6,377.1L313.1,401.9z"/>
	<polygon fill="#5542E2" points="337.9,297.9 428,364.9 452.3,297.9 337.8,276 	"/>
	<path fill="#5542E2" d="M338.6,266.1L456,276.3c0,0,16.9-53.8,4.8-120.1l-117.6,73.7L338.6,266.1z"/>
	<path fill="#5542E2" d="M457.4,134.6C448.8,84.8,422.5,0.4,422.5,0.4c-49.1,78.2-78.4,219.4-78.4,219.4L457.4,134.6z"/>
	<path fill="#5542E2" d="M0,154.5l132,143.4c83.5-71.1,143.8-85.2,143.8-85.2L0,154.5z"/>
	<path fill="#5542E2" d="M298.7,212.4c-3.4,1.3-7.7,2.9-11.1,4.4C219.2,246,151.4,311,151.4,311l97.6,53.8
		C249,364.9,278.4,257.9,298.7,212.4z"/>
	<polygon fill="#5542E2" points="397.7,429.2 348.9,429.2 254.1,526.2 254.1,429.2 217.7,429.2 217.7,672.3 254.1,672.3 
		254.1,571.7 262.1,564.4 348.9,672.3 398.4,672.3 288,539.3 	"/>
	<path fill="#5542E2" d="M450.5,432.5c-6.6,0-12,2.2-16.4,6.6c-4.4,4.4-6.6,9.8-6.6,16.4c0,6.6,2.2,12,6.6,16.4
		c4.4,4.4,9.8,6.6,16.4,6.6c6.6,0,12-2.2,16.4-6.6c4.4-4.4,6.6-9.8,6.6-16.4c0-6.6-2.2-12-6.6-16.4
		C462.5,434.7,457.1,432.5,450.5,432.5z"/>
	<rect x="431.9" y="518.9" fill="#5542E2" width="36.4" height="153.4"/>
	<path fill="#5542E2" d="M670.1,561.7c-4-9.8-9.4-18.2-16.1-25.1c-6.8-6.9-14.6-12.3-23.5-16c-8.9-3.8-18.5-5.6-28.6-5.6
		c-7.7,0-15.6,1.5-23.5,4.6c-8,3-15.2,8.4-21.7,16.2v-16.8h-36.4v236.8h36.4V654.4c3.9,4.9,8.1,8.8,12.7,11.8c4.6,3,8.9,5.3,13,6.9
		c4.1,1.6,7.9,2.6,11.4,3.1c3.5,0.5,6.3,0.7,8.5,0.7c8.9,0,17.9-1.9,26.8-5.6c8.9-3.8,16.8-9.2,23.7-16.2c6.9-7,12.5-15.7,16.8-25.9
		c4.3-10.2,6.5-21.7,6.5-34.6C676.1,582.5,674.1,571.5,670.1,561.7z M636.5,614.9c-2,6-4.9,11.2-8.5,15.7c-3.6,4.5-8,8-13.2,10.6
		c-5.2,2.6-11,3.8-17.5,3.8c-5.5,0-10.9-1-16.1-3.1c-5.2-2.1-9.8-5.1-13.7-9.1c-4-4-7.2-9-9.6-15.1c-2.4-6.1-3.6-13.1-3.6-21.1
		c0-8.3,1.2-15.5,3.6-21.9c2.4-6.3,5.6-11.5,9.6-15.5c4-4,8.5-7,13.7-9.1c5.2-2.1,10.5-3.1,16.1-3.1c6.5,0,12.3,1.3,17.5,3.8
		c5.2,2.5,9.6,6.1,13.2,10.6c3.6,4.5,6.4,9.7,8.5,15.7c2.1,6,3.1,12.3,3.1,19.1C639.6,602.7,638.6,608.9,636.5,614.9z"/>
</g>
</svg>
