<?xml version="1.0" encoding="utf-8"?>
<!-- Generator: Adobe Illustrator 16.0.0, SVG Export Plug-In . SVG Version: 6.00 Build 0)  -->
<!DOCTYPE svg PUBLIC "-//W3C//DTD SVG 1.1//EN" "http://www.w3.org/Graphics/SVG/1.1/DTD/svg11.dtd">
<svg version="1.1" id="Layer_1" xmlns="http://www.w3.org/2000/svg" xmlns:xlink="http://www.w3.org/1999/xlink" x="0px" y="0px"
	 width="100px" height="100px" viewBox="0 0 100 100" enable-background="new 0 0 100 100" xml:space="preserve">
<circle fill="none" stroke="#3D66CA" stroke-width="8" stroke-miterlimit="10" cx="50" cy="50" r="39.501"/>
<g id="Helper">
</g>
<g id="Layer_2">
	<g>
		<path fill="#3D66CA" d="M64.547,36.351c-3.097,0-5.604,2.507-5.604,5.606c0,3.098,2.507,5.605,5.604,5.605
			c3.094,0,5.605-2.507,5.605-5.605C70.152,38.857,67.641,36.351,64.547,36.351z"/>
	</g>
	<g>
		<path fill="#3D66CA" d="M29.495,41.956c0,3.099,2.507,5.606,5.604,5.606c3.099,0,5.606-2.507,5.606-5.606
			c0-3.097-2.507-5.606-5.606-5.606C32.002,36.35,29.495,38.859,29.495,41.956z"/>
	</g>
</g>
<path fill="#3D66CA" d="M45.082,64.125c-5.337,0-7.476-4.578-7.861-6.999c-0.23-1.446,0.816-2.797,2.337-3.017
	c1.505-0.211,2.925,0.769,3.166,2.203c0.051,0.274,0.516,2.516,2.357,2.516c1.483,0,2.039-0.977,2.173-1.275
	c0.535-1.371,2.125-2.044,3.569-1.533c1.442,0.51,2.163,2.062,1.63,3.433C51.775,61.188,49.46,64.125,45.082,64.125z"/>
<path fill="#3D66CA" d="M54.121,64.125c-4.605,0-6.59-3.284-6.996-5.021c-0.333-1.429,0.612-2.843,2.114-3.16
	c1.478-0.32,2.945,0.558,3.308,1.949c0.195,0.619,0.727,0.936,1.574,0.936c2.057,0,2.643-2.604,2.648-2.631
	c0.31-1.434,1.78-2.359,3.287-2.062c1.508,0.295,2.479,1.694,2.168,3.127C61.714,59.636,59.359,64.125,54.121,64.125z"/>
</svg>
