<?xml version="1.0" encoding="utf-8"?>
<!-- Generator: Adobe Illustrator 16.0.4, SVG Export Plug-In . SVG Version: 6.00 Build 0)  -->
<!DOCTYPE svg PUBLIC "-//W3C//DTD SVG 1.1//EN" "http://www.w3.org/Graphics/SVG/1.1/DTD/svg11.dtd">
<svg version="1.1" id="Layer_1" xmlns="http://www.w3.org/2000/svg" xmlns:xlink="http://www.w3.org/1999/xlink" x="0px" y="0px"
	 width="30px" height="40px" viewBox="0 0 30 40" enable-background="new 0 0 30 40" xml:space="preserve">
<g>
	<g opacity="0.3">
		<path d="M16.252,15.599c0.714,0,1.348-0.513,1.475-1.24c0.145-0.815-0.4-1.594-1.217-1.737L0,9.71v3.045l15.99,2.82
			C16.078,15.591,16.165,15.599,16.252,15.599z"/>
		<path d="M16.252,23.599c0.714,0,1.348-0.513,1.475-1.24c0.145-0.815-0.4-1.594-1.217-1.737L0,17.71v3.045l15.99,2.82
			C16.078,23.591,16.165,23.599,16.252,23.599z"/>
		<path d="M15.99,31.575c0.088,0.016,0.175,0.023,0.262,0.023c0.714,0,1.348-0.513,1.475-1.24c0.145-0.815-0.4-1.594-1.217-1.737
			L0,25.711v3.045L15.99,31.575z"/>
		<path d="M16.252,15.599c0.714,0,1.348-0.513,1.475-1.24c0.145-0.815-0.4-1.594-1.217-1.737L0,9.71v3.045l15.99,2.82
			C16.078,15.591,16.165,15.599,16.252,15.599z"/>
		<path d="M16.252,23.599c0.714,0,1.348-0.513,1.475-1.24c0.145-0.815-0.4-1.594-1.217-1.737L0,17.71v3.045l15.99,2.82
			C16.078,23.591,16.165,23.599,16.252,23.599z"/>
		<path d="M15.99,31.575c0.088,0.016,0.175,0.023,0.262,0.023c0.714,0,1.348-0.513,1.475-1.24c0.145-0.815-0.4-1.594-1.217-1.737
			L0,25.711v3.045L15.99,31.575z"/>
	</g>
	<g>
		<g>
			<path fill="#FFFFFF" d="M16.252,14.599c0.714,0,1.348-0.513,1.475-1.24c0.145-0.815-0.4-1.594-1.217-1.737L0,8.71v3.045
				l15.99,2.82C16.078,14.591,16.165,14.599,16.252,14.599z"/>
			<path fill="#FFFFFF" d="M16.252,22.599c0.714,0,1.348-0.513,1.475-1.24c0.145-0.815-0.4-1.594-1.217-1.737L0,16.71v3.045
				l15.99,2.82C16.078,22.591,16.165,22.599,16.252,22.599z"/>
			<path fill="#FFFFFF" d="M15.99,30.575c0.088,0.016,0.175,0.023,0.262,0.023c0.714,0,1.348-0.513,1.475-1.24
				c0.145-0.815-0.4-1.594-1.217-1.737L0,24.711v3.045L15.99,30.575z"/>
		</g>
		<g>
			<path fill="#FFFFFF" d="M16.252,14.599c0.714,0,1.348-0.513,1.475-1.24c0.145-0.815-0.4-1.594-1.217-1.737L0,8.71v3.045
				l15.99,2.82C16.078,14.591,16.165,14.599,16.252,14.599z"/>
			<path fill="#FFFFFF" d="M16.252,22.599c0.714,0,1.348-0.513,1.475-1.24c0.145-0.815-0.4-1.594-1.217-1.737L0,16.71v3.045
				l15.99,2.82C16.078,22.591,16.165,22.599,16.252,22.599z"/>
			<path fill="#FFFFFF" d="M15.99,30.575c0.088,0.016,0.175,0.023,0.262,0.023c0.714,0,1.348-0.513,1.475-1.24
				c0.145-0.815-0.4-1.594-1.217-1.737L0,24.711v3.045L15.99,30.575z"/>
		</g>
	</g>
</g>
</svg>
