<?xml version="1.0" encoding="utf-8"?>
<!-- Generator: Adobe Illustrator 18.0.0, SVG Export Plug-In . SVG Version: 6.00 Build 0)  -->
<!DOCTYPE svg PUBLIC "-//W3C//DTD SVG 1.1//EN" "http://www.w3.org/Graphics/SVG/1.1/DTD/svg11.dtd">
<svg version="1.1" id="Layer_1" xmlns="http://www.w3.org/2000/svg" xmlns:xlink="http://www.w3.org/1999/xlink" x="0px" y="0px"
	 viewBox="0 0 48 48" enable-background="new 0 0 48 48" xml:space="preserve">
<g>
	<path fill="#FFFFFF" d="M36.1,7.5C26.3,31.6,29.3,42,29.3,42l-4-2.3c0,0,0.3-9.3,10.5-32.3c0,0,0.1-0.2,0.2-0.1
		C36.2,7.3,36.1,7.5,36.1,7.5z"/>
	<g>
		<polygon fill="#FFFFFF" points="31.6,32.2 40.1,38.5 42.4,32.2 31.6,30.2 		"/>
		<path fill="#FFFFFF" d="M43.2,19l-11,6.9l-0.4,3.4l11,1C42.7,30.2,44.3,25.2,43.2,19z"/>
		<path fill="#FFFFFF" d="M39.6,4.4c0,0,2.5,7.9,3.3,12.6l-10.6,8C32.2,24.9,35,11.7,39.6,4.4z"/>
	</g>
	<g>
		<g>
			<path fill="#FFFFFF" d="M12.4,32.2L0,18.8l25.8,5.4C25.8,24.2,20.2,25.6,12.4,32.2z"/>
		</g>
		<g>
			<path fill="#FFFFFF" d="M28,24.2c-0.3,0.1-0.7,0.3-1,0.4c-6.4,2.7-12.8,8.8-12.8,8.8l9.1,5C23.3,38.5,26.1,28.5,28,24.2z"/>
		</g>
	</g>
</g>
</svg>
