<?xml version="1.0" encoding="utf-8"?>
<!-- Generator: Adobe Illustrator 18.0.0, SVG Export Plug-In . SVG Version: 6.00 Build 0)  -->
<!DOCTYPE svg PUBLIC "-//W3C//DTD SVG 1.1//EN" "http://www.w3.org/Graphics/SVG/1.1/DTD/svg11.dtd">
<svg version="1.1" id="Layer_1" xmlns="http://www.w3.org/2000/svg" xmlns:xlink="http://www.w3.org/1999/xlink" x="0px" y="0px"
	 viewBox="0 0 240 240" enable-background="new 0 0 240 240" xml:space="preserve">
<g>
	<path fill="#F43B1C" d="M129.4,24.4c-29.1,71.4-20.1,102-20.1,102l-11.8-6.9c0,0,1-27.4,30.9-95.4c0,0,0.2-0.5,0.7-0.3
		C129.6,24,129.4,24.4,129.4,24.4z"/>
	<g>
		<polygon fill="#F43B1C" points="116.2,97.6 141.1,116.2 147.9,97.6 116.1,91.6 		"/>
		<path fill="#F43B1C" d="M150.2,58.4l-32.6,20.4l-1.3,10l32.5,2.8C148.9,91.6,153.6,76.7,150.2,58.4z"/>
		<path fill="#F43B1C" d="M139.6,15.2c0,0,7.3,23.4,9.7,37.2L117.9,76C117.9,76,126,36.9,139.6,15.2z"/>
	</g>
	<g>
		<g>
			<path fill="#F43B1C" d="M59.2,97.6L22.6,57.9L99,74C99,74,82.3,77.9,59.2,97.6z"/>
		</g>
		<g>
			<path fill="#F43B1C" d="M105.3,73.9c-0.9,0.4-2.1,0.8-3.1,1.2c-19,8.1-37.8,26.1-37.8,26.1l27,14.9
				C91.5,116.2,99.7,86.5,105.3,73.9z"/>
		</g>
	</g>
</g>
<g>
	<path fill="#F43B1C" d="M93,160.9l26.2-26.9h13.5l-30.4,30.5l30.6,36.8h-13.7l-24-29.9l-2.2,2v27.9H82.9V134H93V160.9z"/>
	<path fill="#F43B1C" d="M141,141.3c0-1.8,0.6-3.3,1.8-4.5c1.2-1.2,2.7-1.8,4.5-1.8c1.8,0,3.3,0.6,4.5,1.8c1.2,1.2,1.8,2.7,1.8,4.5
		s-0.6,3.3-1.8,4.5c-1.2,1.2-2.7,1.8-4.5,1.8c-1.8,0-3.3-0.6-4.5-1.8C141.6,144.6,141,143.1,141,141.3z M152.3,158.8v42.5h-10.1
		v-42.5H152.3z"/>
	<path fill="#F43B1C" d="M176.8,224.4h-10.1v-65.6h10.1v4.6c1.8-2.2,3.8-3.6,6-4.5c2.2-0.8,4.4-1.3,6.5-1.3c2.8,0,5.5,0.5,7.9,1.6
		c2.5,1,4.6,2.5,6.5,4.4c1.9,1.9,3.4,4.2,4.5,7c1.1,2.7,1.7,5.8,1.7,9.1c0,3.6-0.6,6.8-1.8,9.6c-1.2,2.8-2.8,5.2-4.7,7.2
		c-1.9,2-4.1,3.4-6.6,4.5c-2.5,1-4.9,1.6-7.4,1.6c-0.6,0-1.4-0.1-2.4-0.2c-1-0.1-2-0.4-3.2-0.9c-1.1-0.4-2.3-1.1-3.6-1.9
		c-1.3-0.8-2.4-1.9-3.5-3.3V224.4z M188.1,166.6c-1.5,0-3,0.3-4.5,0.9c-1.4,0.6-2.7,1.4-3.8,2.5c-1.1,1.1-2,2.5-2.7,4.3
		c-0.7,1.8-1,3.8-1,6.1c0,2.2,0.3,4.2,1,5.9c0.7,1.7,1.6,3.1,2.7,4.2c1.1,1.1,2.4,2,3.8,2.5c1.4,0.6,2.9,0.9,4.5,0.9
		c1.8,0,3.4-0.4,4.9-1.1c1.4-0.7,2.7-1.7,3.7-2.9c1-1.2,1.8-2.7,2.4-4.3c0.6-1.6,0.9-3.4,0.9-5.2c0-1.9-0.3-3.6-0.9-5.3
		c-0.6-1.6-1.4-3.1-2.4-4.3c-1-1.2-2.2-2.2-3.7-2.9C191.5,167,189.9,166.6,188.1,166.6z"/>
</g>
</svg>
