<?xml version="1.0" encoding="utf-8"?>
<!-- Generator: Adobe Illustrator 16.0.0, SVG Export Plug-In . SVG Version: 6.00 Build 0)  -->
<!DOCTYPE svg PUBLIC "-//W3C//DTD SVG 1.1//EN" "http://www.w3.org/Graphics/SVG/1.1/DTD/svg11.dtd">
<svg version="1.1" id="Layer_1" xmlns="http://www.w3.org/2000/svg" xmlns:xlink="http://www.w3.org/1999/xlink" x="0px" y="0px"
	 width="40px" height="40px" viewBox="0 0 40 40" enable-background="new 0 0 40 40" xml:space="preserve">
<g>
	<circle fill="#CCCCCC" cx="20.008" cy="19.992" r="19.992"/>
</g>
<rect x="8.008" y="7.992" display="none" fill="#ED1C24" width="24" height="24"/>
<path fill="none" d="M5.542,5.471h29.042v29.042H5.542V5.471z"/>
<path display="none" fill="#777777" d="M29.742,7.891h-19.36c-1.337,0-2.409,1.083-2.409,2.42L7.961,32.093l4.841-4.841h16.94
	c1.339,0,2.422-1.082,2.422-2.421v-14.52C32.164,8.974,31.081,7.891,29.742,7.891z M15.222,22.412h-2.42v-2.42h2.42V22.412z
	 M15.222,18.782h-2.42v-2.42h2.42V18.782z M15.222,15.151h-2.42v-2.42h2.42V15.151z M23.692,22.412h-6.05v-2.42h6.05V22.412z
	 M27.322,18.782h-9.68v-2.42h9.68V18.782z M27.322,15.151h-9.68v-2.42h9.68V15.151z"/>
<path fill="none" d="M5.471,5.471h29.059v29.059H5.471V5.471z"/>
<path fill="#777777" d="M20.062,16.604c-4.106,0-7.446,3.339-7.446,7.445h2.127c0-2.93,2.388-5.318,5.318-5.318
	c2.93,0,5.318,2.389,5.318,5.318h2.127C27.508,19.942,24.169,16.604,20.062,16.604z M20.062,12.349c-6.451,0-11.7,5.249-11.7,11.7
	h2.127c0-5.275,4.297-9.573,9.573-9.573s9.573,4.298,9.573,9.573h2.127C31.763,17.598,26.514,12.349,20.062,12.349z"/>
</svg>
