<?xml version="1.0" encoding="utf-8"?>
<!-- Generator: Adobe Illustrator 16.0.0, SVG Export Plug-In . SVG Version: 6.00 Build 0)  -->
<!DOCTYPE svg PUBLIC "-//W3C//DTD SVG 1.1//EN" "http://www.w3.org/Graphics/SVG/1.1/DTD/svg11.dtd">
<svg version="1.1" id="Layer_1" xmlns="http://www.w3.org/2000/svg" xmlns:xlink="http://www.w3.org/1999/xlink" x="0px" y="0px"
	 width="360px" height="82px" viewBox="0 0 360 82" enable-background="new 0 0 360 82" xml:space="preserve">
<g>
	<path fill="#3D66CA" d="M60.506,11.028h22.936c2.858,0,5.516,0.342,7.972,1.025c2.455,0.685,4.569,1.694,6.34,3.03
		c1.771,1.337,3.169,3.046,4.195,5.127c1.026,2.083,1.538,4.522,1.538,7.319c0,3.792-1.058,6.885-3.169,9.277
		c-2.114,2.394-4.849,4.148-8.205,5.268v0.187c1.989,0.125,3.853,0.638,5.594,1.539c1.74,0.902,3.248,2.083,4.522,3.543
		c1.273,1.462,2.284,3.155,3.03,5.081c0.746,1.928,1.119,4.01,1.119,6.247c0,2.983-0.606,5.61-1.818,7.878
		c-1.212,2.271-2.876,4.182-4.988,5.734c-2.114,1.555-4.568,2.734-7.365,3.543s-5.813,1.212-9.044,1.212H60.506V11.028z
		 M69.457,38.439H81.67c1.678,0,3.263-0.171,4.755-0.513c1.492-0.341,2.797-0.917,3.916-1.725c1.119-0.807,2.004-1.833,2.657-3.076
		c0.652-1.243,0.979-2.765,0.979-4.569c0-2.61-0.839-4.879-2.517-6.806c-1.678-1.926-4.321-2.891-7.925-2.891H69.457V38.439z
		 M69.457,69.206h13.146c1.367,0,2.875-0.14,4.522-0.419c1.646-0.28,3.185-0.839,4.615-1.68c1.429-0.838,2.641-1.972,3.636-3.401
		c0.994-1.431,1.492-3.325,1.492-5.688c0-3.916-1.274-6.853-3.822-8.811c-2.55-1.958-5.999-2.938-10.349-2.938h-13.24V69.206z"/>
	<path fill="#3D66CA" d="M154.392,77.038h-8.391v-6.806h-0.187c-1.058,2.362-2.89,4.272-5.501,5.732
		c-2.61,1.46-5.626,2.191-9.043,2.191c-2.176,0-4.228-0.326-6.154-0.979c-1.927-0.651-3.621-1.661-5.081-3.028
		c-1.461-1.367-2.626-3.125-3.496-5.269c-0.871-2.146-1.305-4.677-1.305-7.6V32.845h8.391v26.106c0,2.051,0.28,3.808,0.839,5.268
		c0.559,1.461,1.306,2.643,2.238,3.543c0.932,0.901,2.004,1.555,3.217,1.958c1.211,0.404,2.47,0.605,3.775,0.605
		c1.74,0,3.356-0.279,4.849-0.839c1.492-0.561,2.797-1.445,3.916-2.657s1.989-2.751,2.61-4.615s0.933-4.069,0.933-6.62v-22.75h8.391
		L154.392,77.038L154.392,77.038z"/>
	<path fill="#3D66CA" d="M165.208,6.553h8.391v32.632h0.187c1.492-2.299,3.636-4.117,6.433-5.454
		c2.797-1.336,5.781-2.004,8.951-2.004c3.417,0,6.512,0.591,9.277,1.771c2.765,1.182,5.127,2.813,7.085,4.895
		c1.958,2.083,3.465,4.539,4.522,7.366c1.055,2.829,1.584,5.89,1.584,9.183c0,3.297-0.529,6.341-1.584,9.138
		c-1.059,2.798-2.564,5.254-4.522,7.366c-1.958,2.113-4.32,3.761-7.085,4.94c-2.768,1.181-5.86,1.771-9.277,1.771
		c-2.982,0-5.891-0.653-8.718-1.958c-2.829-1.307-5.05-3.139-6.666-5.501h-0.187v6.34h-8.391V6.553L165.208,6.553z M188.145,70.325
		c2.236,0,4.256-0.388,6.06-1.165c1.803-0.776,3.325-1.833,4.569-3.17c1.242-1.336,2.205-2.952,2.89-4.85
		c0.685-1.896,1.024-3.961,1.024-6.199c0-2.237-0.342-4.303-1.024-6.2c-0.685-1.896-1.647-3.511-2.89-4.849
		c-1.244-1.336-2.768-2.392-4.569-3.169c-1.804-0.776-3.822-1.166-6.06-1.166c-2.238,0-4.258,0.39-6.062,1.166
		c-1.804,0.778-3.326,1.833-4.568,3.169c-1.244,1.338-2.207,2.953-2.891,4.849c-0.685,1.896-1.025,3.962-1.025,6.2
		s0.341,4.305,1.025,6.199c0.684,1.896,1.646,3.514,2.891,4.85c1.243,1.337,2.765,2.394,4.568,3.17
		C183.885,69.938,185.904,70.325,188.145,70.325z"/>
	<path fill="#3D66CA" d="M222.173,6.553h8.392v32.632h0.188c1.491-2.299,3.637-4.117,6.434-5.454
		c2.797-1.336,5.779-2.004,8.951-2.004c3.416,0,6.51,0.591,9.275,1.771c2.766,1.182,5.128,2.813,7.086,4.895
		c1.958,2.083,3.464,4.539,4.521,7.366c1.057,2.829,1.584,5.89,1.584,9.183c0,3.297-0.527,6.341-1.584,9.138
		c-1.059,2.798-2.563,5.254-4.521,7.366c-1.958,2.113-4.321,3.761-7.086,4.94c-2.768,1.181-5.859,1.771-9.275,1.771
		c-2.984,0-5.892-0.653-8.719-1.958c-2.829-1.307-5.051-3.139-6.666-5.501h-0.188v6.34h-8.392V6.553z M245.107,70.325
		c2.238,0,4.258-0.388,6.062-1.165c1.802-0.776,3.324-1.833,4.567-3.17c1.242-1.336,2.207-2.952,2.892-4.85
		c0.683-1.896,1.024-3.961,1.024-6.199c0-2.237-0.342-4.303-1.024-6.2c-0.685-1.896-1.647-3.511-2.892-4.849
		c-1.243-1.336-2.766-2.392-4.567-3.169c-1.804-0.776-3.823-1.166-6.062-1.166c-2.237,0-4.258,0.39-6.061,1.166
		c-1.803,0.778-3.324,1.833-4.568,3.169c-1.244,1.338-2.207,2.953-2.89,4.849c-0.687,1.896-1.026,3.962-1.026,6.2
		s0.342,4.305,1.026,6.199c0.683,1.896,1.646,3.514,2.89,4.85c1.244,1.337,2.767,2.394,4.568,3.17
		C240.852,69.938,242.871,70.325,245.107,70.325z"/>
	<path fill="#3D66CA" d="M279.791,6.553h8.393v70.485h-8.393V6.553z"/>
	<path fill="#3D66CA" d="M304.404,77.598c-1.68,0-3.123-0.604-4.336-1.817c-1.213-1.212-1.817-2.657-1.817-4.335
		c0-1.68,0.604-3.123,1.817-4.336s2.656-1.817,4.336-1.817c1.678,0,3.123,0.604,4.335,1.817c1.213,1.213,1.817,2.656,1.817,4.336
		c0,1.678-0.604,3.123-1.817,4.335C307.527,76.992,306.082,77.598,304.404,77.598z"/>
	<path fill="#3D66CA" d="M320.627,6.553h8.391v70.485h-8.391V6.553z"/>
	<path fill="#3D66CA" d="M341.044,16.996c0-1.679,0.606-3.124,1.818-4.336c1.213-1.212,2.656-1.818,4.336-1.818
		c1.678,0,3.123,0.606,4.335,1.818c1.213,1.212,1.817,2.657,1.817,4.336c0,1.678-0.604,3.123-1.817,4.335
		c-1.212,1.212-2.657,1.818-4.335,1.818c-1.68,0-3.123-0.606-4.336-1.818C341.65,20.119,341.044,18.673,341.044,16.996z
		 M343.002,32.845h8.392v44.193h-8.392V32.845z"/>
</g>
<g>
	<path fill="#3D66CA" d="M28.238,42.211C36.597,42.211,44,47.148,47,54.266V11H10v42.209C13,46.665,20.299,42.211,28.238,42.211z"/>
	<path fill="#3D66CA" d="M28.899,52.514C21.257,52.471,15,55.941,10,61.407V77h37V60.797C43,55.753,36.153,52.555,28.899,52.514z"/>
</g>
</svg>
