<?xml version="1.0" encoding="utf-8"?>
<!-- Generator: Adobe Illustrator 16.0.0, SVG Export Plug-In . SVG Version: 6.00 Build 0)  -->
<!DOCTYPE svg PUBLIC "-//W3C//DTD SVG 1.1//EN" "http://www.w3.org/Graphics/SVG/1.1/DTD/svg11.dtd">
<svg version="1.1" id="Layer_1" xmlns="http://www.w3.org/2000/svg" xmlns:xlink="http://www.w3.org/1999/xlink" x="0px" y="0px"
	 width="100px" height="100px" viewBox="0 0 100 100" enable-background="new 0 0 100 100" xml:space="preserve">
<g id="Helper">
</g>
<g>
	<circle fill="#3D66CA" cx="23.729" cy="18.085" r="8.18"/>
	<path fill="#3D66CA" d="M11.5,34.523c0,0,1.864,8.927-0.057,12.975c-2.837,5.979-2.747,7.505-2.747,7.505
		c-0.341,1.989,0.241,7.54,2.369,8.872l1.589,26.637c0,2.105,0.677,3.721,2.958,3.862c2.443,0.151,3.565-1.094,3.721-2.517
		l2.308-30.514c1.329-2.143,1.671-4.499,1.671-5.531c0-4.019,0.127-7.031,0.476-9.832C23.9,46.064,25.08,42.917,25.195,43
		c2.677,1.867,4.854,2.875,8.514,2.875c3.123,0,6.597-0.245,10.396-1.607c2.301-0.822,3.192-2.89,2.366-5.189
		c-0.824-2.299-3.172-2.528-5.471-1.703c-3.699,1.328-8.627,2.145-11.719,0.026c-1.401-0.962-4.303-2.815-4.828-5.85
		c0,0-0.32-3.66-4.622-4.65C12.68,26.902,11.5,34.523,11.5,34.523z"/>
</g>
<g>
	<circle fill="#3D66CA" cx="76.182" cy="18.085" r="8.18"/>
	<path fill="#3D66CA" d="M80.079,26.902c-4.302,0.99-4.622,4.65-4.622,4.65c-0.525,3.035-3.426,4.887-4.828,5.85
		c-3.092,2.119-8.02,1.301-11.719-0.026c-2.299-0.825-4.646-0.596-5.471,1.703c-0.826,2.3,0.063,4.367,2.365,5.189
		c3.799,1.362,7.271,1.607,10.396,1.607c3.659,0,5.837-1.008,8.515-2.875c0.115-0.083,1.295,3.064,1.406,2.981
		c0.35,2.8,0.477,5.813,0.477,9.832c0,1.032,0.342,3.39,1.672,5.531l2.308,30.514c0.155,1.422,1.278,2.668,3.721,2.517
		c2.281-0.142,2.959-1.757,2.959-3.862l1.589-26.637c2.129-1.332,2.711-6.883,2.368-8.872c0,0,0.093-1.524-2.746-7.505
		c-1.921-4.048-0.057-12.975-0.057-12.975S87.23,26.902,80.079,26.902z"/>
</g>
<path fill="#3D66CA" d="M40.173,17.194l7.391,6.837c0.29,0.303,0.732,0.393,1.117,0.234c0.386-0.158,0.634-0.537,0.624-0.954
	l-0.066-3.825c0,0,3.635-1.627,6.848,0.988c1.241,1.153,2.771,3.913,3.236,8.324c0.317,0.656,0.741,0.99,1.463,0.876
	c0.723-0.117,1.287-0.691,1.39-1.414c0.393-2.759-0.217-7.794-2.1-10.845c-4.118-6.644-11.097-6.614-11.097-6.614L48.92,6.61
	c-0.005-0.399-0.248-0.755-0.612-0.91c-0.364-0.154-0.791-0.084-1.083,0.184l-6.915,7.027C40.31,12.911,37.878,14.899,40.173,17.194
	z"/>
<path fill="#3D66CA" d="M61.303,63.122l-7.391-6.837c-0.29-0.305-0.732-0.395-1.117-0.234c-0.386,0.158-0.634,0.537-0.623,0.954
	l0.066,3.825c0,0-3.635,1.627-6.848-0.988c-1.241-1.152-2.771-3.912-3.236-8.324c-0.318-0.656-0.741-0.99-1.463-0.875
	c-0.723,0.115-1.287,0.689-1.39,1.414c-0.393,2.758,0.217,7.793,2.1,10.844c4.118,6.645,11.096,6.613,11.096,6.613l0.06,4.192
	c0.006,0.397,0.248,0.755,0.611,0.91c0.364,0.153,0.791,0.084,1.083-0.185l6.915-7.026C61.166,67.405,63.598,65.417,61.303,63.122z"
	/>
</svg>
