<svg xmlns="http://www.w3.org/2000/svg" xmlns:xlink="http://www.w3.org/1999/xlink" version="1.1" id="Layer_1" x="0px" y="0px" width="100px" height="100px" viewBox="0 0 100 100" enable-background="new 0 0 100 100" xml:space="preserve">
<rect x="52.628" y="22.074" transform="matrix(0.6164 0.7875 -0.7875 0.6164 39.6152 -35.5322)" width="7.295" height="1.635"/>
<rect x="50.337" y="25.322" transform="matrix(0.8607 0.509 -0.509 0.8607 20.7597 -23.6078)" width="6.381" height="1.633"/>
<rect x="51.962" y="26.754" transform="matrix(0.0676 0.9977 -0.9977 0.0676 79.6541 -24.2099)" width="1.634" height="7.512"/>
<path d="M81.409,51.774c-2.285-8.915-8.168-14.825-14.92-14.825v1.808c5.854,0,11.007,5.271,13.119,13.249l-3.579,0.458l5.462,7.169  l3.48-8.312L81.409,51.774z"/>
<path d="M66.017,28.773l-0.044-0.259c-0.036-0.214-0.391-2.111-1.794-2.679c-0.264-0.105-0.552-0.159-0.855-0.159  c-1.122,0-2.177,0.752-2.292,0.839l-0.212,0.156l-5.078,12.572c-2.935,0.262-5.239,2.479-5.239,5.211  c0,0.289,0.046,0.566,0.094,0.843c-0.154-0.057-0.296-0.108-0.459-0.167c-0.256-0.12-0.366-0.041-0.401,0.136  c-0.061,0.149-0.204,0.192-0.31,0.292c-1.827,1.405-4.266,3.281-6.701,5.155c-0.963,0.74-1.916,1.472-2.841,2.183  c-2.134-1.639-10.604-6.883-14.247-8.482c-0.076-0.48-0.15-0.963-0.266-1.396c-0.278-1.049-1.715-3.039-2.474-3.565  c-1.217-0.89-2.472-1.675-3.581-2.355c5.918-1.494,10.341-7.346,10.341-14.355c0-8.138-5.96-14.736-13.309-14.736  c-7.35,0-13.308,6.599-13.308,14.736c0,6.179,3.436,11.459,8.304,13.65c-0.507,0.092-0.904,0.21-1.121,0.355  c-1.238,0.771-2.747,1.707-4.188,2.778c-0.755,0.537-2.104,2.559-2.444,3.591c-1.533,4.641-1.67,12.494-1.639,19.487  c0.031,6.994,1.787,13.732,1.81,18.978c-0.028,0.327,0.084,0.647-0.092,0.963c-0.079,0.156-0.201,0.313-0.156,0.467  c0.033,0.152,0.227,0.301,0.447,0.45c0.853,0.594,1.662,1.157,2.421,1.687c1.457,1.062,15.126,0.998,16.576-0.073  c0.755-0.537,1.559-1.106,2.404-1.708c0.22-0.152,0.411-0.304,0.442-0.457c0.044-0.153-0.079-0.308-0.161-0.465  c-0.177-0.312-0.066-0.635-0.102-0.961c-0.021-5.245-0.053-12.238-0.086-19.231c-0.006-1.357,0.041-2.733,0.1-4.109  c4.019,1.402,10.976,3.282,11.908,2.988c3.353,0.172,9.74-0.153,11.52-1.521c2.438-1.873,4.841-4.547,6.67-5.951  c0.124-0.075,0.202-0.204,0.361-0.223c0.184,0.01,0.286-0.075,0.237-0.356c-0.045-0.489-0.091-0.955-0.131-1.395  c-0.071-0.763-0.133-1.424-0.188-2.003c0.128,0.008,0.247,0.035,0.376,0.035c3.211,0,5.811-2.357,5.811-5.264  c0-1.182-0.444-2.263-1.171-3.141L66.017,28.773z"/>
<path d="M97.231,94.415H67.362V65.159h29.869V94.415z M68.727,93.09h27.139V66.482H68.727V93.09z"/>
<ellipse cx="82.432" cy="77.507" rx="7.35" ry="7.714"/>
<path d="M82.295,84.505c0,0,0.396,0.042,1.141,0.119c0.697,0.077,1.718,0.191,3.021,0.333c1.142,0.143,2.535,0.313,4.127,0.516  c0.798,0.096,2.612,0.581,2.587,0.639c-0.009,0.902-0.02,2.102-0.03,3.306c-0.012,1.203,0.11,3.488,0.102,4.391  c0.034,0.056-1.894,0.02-2.688,0.103c-1.587,0.17-3.143-0.282-4.282-0.161c-2.588,0.24-4.066,0.376-4.066,0.376  s-1.476-0.164-4.06-0.45c-1.136-0.145-2.446,0.229-4.028,0.031c-0.792-0.099-3.11-0.244-3.029-0.272  c0.18-0.052,0.261-3.017,0.272-4.221c0.011-1.202,0.022-2.403,0.031-3.305c-0.022-0.059,1.799-0.506,2.599-0.591  c1.597-0.168,2.989-0.316,4.138-0.438c1.302-0.119,2.328-0.213,3.025-0.275C81.897,84.539,82.295,84.505,82.295,84.505z"/>
</svg>