<svg xmlns="http://www.w3.org/2000/svg" xmlns:xlink="http://www.w3.org/1999/xlink" version="1.1" x="0px" y="0px" viewBox="0 0 100 100" enable-background="new 0 0 100 100" xml:space="preserve" height="100px" width="100px">
<g id="Helper">
</g>
<g id="Layer_2">
	<g>
		<path fill-rule="evenodd" clip-rule="evenodd" d="M81.86,18.15c-17.52-17.51-45.9-17.52-63.42,0c-17.52,17.52-17.51,45.91,0,63.42    c17.52,17.52,45.9,17.52,63.42,0C99.38,64.06,99.38,35.67,81.86,18.15z M52.73,83.39c-18.52,1.44-34.69-12.43-36.11-30.95    c-1.43-18.52,12.43-34.68,30.95-36.11C66.1,14.9,82.26,28.77,83.68,47.28C85.11,65.81,71.24,81.97,52.73,83.39z"/>
	</g>
	<g>
		<path d="M64.547,35.059c-3.097,0-5.604,2.507-5.604,5.606c0,3.098,2.507,5.605,5.604,5.605c3.094,0,5.606-2.507,5.606-5.605    C70.153,37.566,67.641,35.059,64.547,35.059z"/>
	</g>
	<g>
		<path d="M29.495,40.664c0,3.099,2.507,5.606,5.604,5.606c3.099,0,5.606-2.507,5.606-5.606c0-3.097-2.507-5.606-5.606-5.606    C32.002,35.058,29.495,37.567,29.495,40.664z"/>
	</g>
	<g>
		<path d="M60.09,58.04c0,3.56-2.83,6.25-6.59,6.25c-1.41,0-2.7-0.4-3.74-1.09c-1.06,0.7-2.37,1.09-3.81,1.09    c-3.69,0-6.47-2.69-6.47-6.25c0-1.53,1.24-2.77,2.77-2.77s2.77,1.24,2.77,2.77c0,0.23,0,0.7,0.93,0.7c0.24,0,1.05-0.05,1.05-0.7    c0-1.43,1.09-2.61,2.49-2.76c0.11,0,0.21-0.01,0.32-0.01c0.08,0,0.16,0,0.24,0.01c1.42,0.12,2.53,1.31,2.53,2.76    c0,0.23,0,0.7,0.92,0.7c0.25,0,1.05-0.05,1.05-0.7c0-1.53,1.24-2.77,2.77-2.77C58.85,55.27,60.09,56.51,60.09,58.04z"/>
	</g>
</g>
</svg>