<?xml version="1.0" encoding="utf-8"?>
<!-- Generator: Adobe Illustrator 16.0.0, SVG Export Plug-In . SVG Version: 6.00 Build 0)  -->
<!DOCTYPE svg PUBLIC "-//W3C//DTD SVG 1.1//EN" "http://www.w3.org/Graphics/SVG/1.1/DTD/svg11.dtd">
<svg version="1.1" id="Layer_1" xmlns="http://www.w3.org/2000/svg" xmlns:xlink="http://www.w3.org/1999/xlink" x="0px" y="0px"
	 width="40px" height="40px" viewBox="0 0 40 40" enable-background="new 0 0 40 40" xml:space="preserve">
<g>
	<circle fill="#CCCCCC" cx="20.008" cy="19.992" r="19.992"/>
</g>
<rect x="8.008" y="7.992" display="none" fill="#ED1C24" width="24" height="24"/>
<path fill="none" d="M5.542,5.471h29.042v29.042H5.542V5.471z"/>
<path display="none" fill="#777777" d="M29.742,7.891h-19.36c-1.337,0-2.409,1.083-2.409,2.42L7.961,32.093l4.841-4.841h16.94
	c1.339,0,2.422-1.082,2.422-2.421v-14.52C32.164,8.974,31.081,7.891,29.742,7.891z M15.222,22.412h-2.42v-2.42h2.42V22.412z
	 M15.222,18.782h-2.42v-2.42h2.42V18.782z M15.222,15.151h-2.42v-2.42h2.42V15.151z M23.692,22.412h-6.05v-2.42h6.05V22.412z
	 M27.322,18.782h-9.68v-2.42h9.68V18.782z M27.322,15.151h-9.68v-2.42h9.68V15.151z"/>
<path fill="none" d="M5.471,5.471h29.059v29.059H5.471V5.471z"/>
<path fill="none" d="M12,3h48v48H12V3z"/>
<path fill="#777777" d="M31.996,16.152c0-4.596-3.729-8.324-8.324-8.324c-4.598,0-8.325,3.729-8.325,8.324
	c0,4.124,2.996,7.536,6.933,8.2v4.684h-9.515v-3.568h1.19v-4.759c0-0.652-0.536-1.188-1.19-1.188H9.197
	c-0.654,0-1.189,0.536-1.189,1.188v4.759h1.189v5.943h19.027v-2.375h-3.567v-4.617C28.791,23.932,31.996,20.416,31.996,16.152z
	 M10.981,18.328c0.988,0,1.784-0.796,1.784-1.784c0-0.984-0.796-1.784-1.784-1.784c-0.986,0-1.784,0.8-1.784,1.784
	C9.197,17.532,9.995,18.328,10.981,18.328z"/>
</svg>
