<?xml version="1.0" encoding="utf-8"?>
<!-- Generator: Adobe Illustrator 18.0.0, SVG Export Plug-In . SVG Version: 6.00 Build 0)  -->
<!DOCTYPE svg PUBLIC "-//W3C//DTD SVG 1.1//EN" "http://www.w3.org/Graphics/SVG/1.1/DTD/svg11.dtd">
<svg version="1.1" id="Layer_1" xmlns="http://www.w3.org/2000/svg" xmlns:xlink="http://www.w3.org/1999/xlink" x="0px" y="0px"
	 viewBox="0 0 347.1 82.5" enable-background="new 0 0 347.1 82.5" xml:space="preserve">
<path fill="#F0604B" d="M25.6,39.6c7.7,0,14.4,4.6,17.4,11.1v-40H8.7v39C11.9,43.7,18.3,39.6,25.6,39.6z"/>
<path fill="#F0604B" d="M26.1,49.1c-7.1,0-13.3,3.2-17.5,8.2v10.5V72h3h28.3h3.1v-5.1V56.8C38.9,52.1,32.8,49.2,26.1,49.1z"/>
<path fill="#F0604B" d="M57.4,10.6h21.3c2.7,0,5.1,0.3,7.4,1c2.3,0.6,4.2,1.6,5.9,2.8c1.6,1.2,2.9,2.8,3.9,4.8
	c1,1.9,1.4,4.2,1.4,6.8c0,3.5-1,6.4-2.9,8.6c-2,2.2-4.5,3.9-7.6,4.9v0.2c1.8,0.1,3.6,0.6,5.2,1.4c1.6,0.8,3,1.9,4.2,3.3
	c1.2,1.4,2.1,2.9,2.8,4.7c0.7,1.8,1,3.7,1,5.8c0,2.8-0.6,5.2-1.7,7.3c-1.1,2.1-2.7,3.9-4.6,5.3c-2,1.4-4.2,2.5-6.8,3.3
	c-2.6,0.8-5.4,1.1-8.4,1.1h-21V10.6z M65.8,36.1h11.3c1.6,0,3-0.2,4.4-0.5c1.4-0.3,2.6-0.9,3.6-1.6c1-0.7,1.9-1.7,2.5-2.9
	c0.6-1.2,0.9-2.6,0.9-4.2c0-2.4-0.8-4.5-2.3-6.3c-1.6-1.8-4-2.7-7.4-2.7H65.8V36.1z M65.8,64.7H78c1.3,0,2.7-0.1,4.2-0.4
	c1.5-0.3,3-0.8,4.3-1.6c1.3-0.8,2.5-1.8,3.4-3.2c0.9-1.3,1.4-3.1,1.4-5.3c0-3.6-1.2-6.4-3.6-8.2c-2.4-1.8-5.6-2.7-9.6-2.7H65.8V64.7
	z"/>
<path fill="#F0604B" d="M146.4,72h-7.8v-6.3h-0.2c-1,2.2-2.7,4-5.1,5.3c-2.4,1.4-5.2,2-8.4,2c-2,0-3.9-0.3-5.7-0.9
	c-1.8-0.6-3.4-1.5-4.7-2.8c-1.4-1.3-2.4-2.9-3.2-4.9c-0.8-2-1.2-4.3-1.2-7.1V30.9h7.8v24.3c0,1.9,0.3,3.5,0.8,4.9
	c0.5,1.4,1.2,2.5,2.1,3.3c0.9,0.8,1.9,1.4,3,1.8c1.1,0.4,2.3,0.6,3.5,0.6c1.6,0,3.1-0.3,4.5-0.8c1.4-0.5,2.6-1.3,3.6-2.5
	c1-1.1,1.8-2.6,2.4-4.3c0.6-1.7,0.9-3.8,0.9-6.2V30.9h7.8V72z"/>
<path fill="#F0604B" d="M158.2,6.5h7.8v30.3h0.2c1.4-2.1,3.4-3.8,6-5.1c2.6-1.2,5.4-1.9,8.3-1.9c3.2,0,6,0.5,8.6,1.6
	c2.6,1.1,4.8,2.6,6.6,4.5c1.8,1.9,3.2,4.2,4.2,6.8c1,2.6,1.5,5.5,1.5,8.5c0,3.1-0.5,5.9-1.5,8.5c-1,2.6-2.4,4.9-4.2,6.8
	c-1.8,2-4,3.5-6.6,4.6c-2.6,1.1-5.4,1.6-8.6,1.6c-2.8,0-5.5-0.6-8.1-1.8c-2.6-1.2-4.7-2.9-6.2-5.1H166V72h-7.8V6.5z M179.5,65.7
	c2.1,0,4-0.4,5.6-1.1c1.7-0.7,3.1-1.7,4.2-2.9c1.2-1.2,2-2.7,2.7-4.5c0.6-1.8,1-3.7,1-5.8c0-2.1-0.3-4-1-5.8
	c-0.6-1.8-1.5-3.3-2.7-4.5c-1.2-1.2-2.6-2.2-4.2-2.9c-1.7-0.7-3.6-1.1-5.6-1.1c-2.1,0-4,0.4-5.6,1.1c-1.7,0.7-3.1,1.7-4.2,2.9
	c-1.2,1.2-2.1,2.7-2.7,4.5c-0.6,1.8-1,3.7-1,5.8c0,2.1,0.3,4,1,5.8c0.6,1.8,1.5,3.3,2.7,4.5c1.2,1.2,2.6,2.2,4.2,2.9
	C175.5,65.4,177.4,65.7,179.5,65.7z"/>
<path fill="#F0604B" d="M211.1,6.5h7.8v30.3h0.2c1.4-2.1,3.4-3.8,6-5.1c2.6-1.2,5.4-1.9,8.3-1.9c3.2,0,6,0.5,8.6,1.6
	c2.6,1.1,4.8,2.6,6.6,4.5c1.8,1.9,3.2,4.2,4.2,6.8c1,2.6,1.5,5.5,1.5,8.5c0,3.1-0.5,5.9-1.5,8.5c-1,2.6-2.4,4.9-4.2,6.8
	c-1.8,2-4,3.5-6.6,4.6c-2.6,1.1-5.4,1.6-8.6,1.6c-2.8,0-5.5-0.6-8.1-1.8c-2.6-1.2-4.7-2.9-6.2-5.1h-0.2V72h-7.8V6.5z M232.4,65.7
	c2.1,0,4-0.4,5.6-1.1c1.7-0.7,3.1-1.7,4.2-2.9c1.2-1.2,2-2.7,2.7-4.5c0.6-1.8,1-3.7,1-5.8c0-2.1-0.3-4-1-5.8
	c-0.6-1.8-1.5-3.3-2.7-4.5c-1.2-1.2-2.6-2.2-4.2-2.9c-1.7-0.7-3.6-1.1-5.6-1.1c-2.1,0-4,0.4-5.6,1.1c-1.7,0.7-3.1,1.7-4.2,2.9
	c-1.2,1.2-2.1,2.7-2.7,4.5c-0.6,1.8-1,3.7-1,5.8c0,2.1,0.3,4,1,5.8c0.6,1.8,1.5,3.3,2.7,4.5c1.2,1.2,2.6,2.2,4.2,2.9
	C228.5,65.4,230.3,65.7,232.4,65.7z"/>
<path fill="#F0604B" d="M264.6,6.5h7.8V72h-7.8V6.5z"/>
<path fill="#F0604B" d="M291.3,72.5c-1.7,0-3.2-0.6-4.4-1.8c-1.2-1.2-1.8-2.7-1.8-4.4s0.6-3.2,1.8-4.4c1.2-1.2,2.7-1.8,4.4-1.8
	c1.7,0,3.2,0.6,4.4,1.8c1.2,1.2,1.8,2.7,1.8,4.4s-0.6,3.2-1.8,4.4C294.4,71.9,293,72.5,291.3,72.5z"/>
<path fill="#F0604B" d="M309.5,6.5h7.8V72h-7.8V6.5z"/>
<path fill="#F0604B" d="M328.5,16.2c0-1.6,0.6-2.9,1.7-4c1.1-1.1,2.5-1.7,4-1.7c1.6,0,2.9,0.6,4,1.7c1.1,1.1,1.7,2.5,1.7,4
	c0,1.6-0.6,2.9-1.7,4c-1.1,1.1-2.5,1.7-4,1.7c-1.6,0-2.9-0.6-4-1.7C329,19.1,328.5,17.7,328.5,16.2z M330.3,30.9h7.8V72h-7.8V30.9z"
	/>
<g>
	<ellipse fill="#F0604B" cx="334.2" cy="16.2" rx="5.7" ry="5.8"/>
</g>
</svg>
