<?xml version="1.0" encoding="utf-8"?>
<!-- Generator: Adobe Illustrator 18.0.0, SVG Export Plug-In . SVG Version: 6.00 Build 0)  -->
<!DOCTYPE svg PUBLIC "-//W3C//DTD SVG 1.1//EN" "http://www.w3.org/Graphics/SVG/1.1/DTD/svg11.dtd">
<svg version="1.1" id="Layer_1" xmlns="http://www.w3.org/2000/svg" xmlns:xlink="http://www.w3.org/1999/xlink" x="0px" y="0px"
	 viewBox="0 0 181 59.2" enable-background="new 0 0 181 59.2" xml:space="preserve">
<g>
	<g>
		<path fill="#202A8E" d="M64.1,11.8c0-0.3,0.3-0.5,0.5-0.5h1.8c0.3,0,0.5,0.3,0.5,0.5v18.4c0,0.3-0.2,0.5-0.5,0.5h-1.8
			c-0.3,0-0.5-0.2-0.5-0.5V11.8z"/>
		<path fill="#202A8E" d="M70.5,15.2c0-0.2,0.2-0.4,0.4-0.4h0.6l10,12.7c0,0,0,0,0,0v-12c0-0.2,0.2-0.4,0.4-0.4h0.8
			c0.2,0,0.4,0.2,0.4,0.4v15.2c0,0.2-0.2,0.4-0.4,0.4h-0.4L72.2,18.1h0v12.3c0,0.2-0.2,0.4-0.4,0.4h-0.8c-0.2,0-0.4-0.2-0.4-0.4
			V15.2z"/>
		<path fill="#202A8E" d="M89.7,16.5h-3.9c-0.2,0-0.4-0.2-0.4-0.4v-0.7c0-0.2,0.2-0.4,0.4-0.4h9.6c0.2,0,0.4,0.2,0.4,0.4v0.7
			c0,0.2-0.2,0.4-0.4,0.4h-3.9v13.8c0,0.2-0.2,0.4-0.4,0.4h-0.9c-0.2,0-0.4-0.2-0.4-0.4V16.5z"/>
		<path fill="#202A8E" d="M97.8,15.5c0-0.2,0.2-0.4,0.4-0.4h8.9c0.2,0,0.4,0.2,0.4,0.4v0.7c0,0.2-0.2,0.4-0.4,0.4h-7.6V22h6.5
			c0.2,0,0.4,0.2,0.4,0.4v0.7c0,0.2-0.2,0.4-0.4,0.4h-6.5v5.7h7.6c0.2,0,0.4,0.2,0.4,0.4v0.7c0,0.2-0.2,0.4-0.4,0.4h-8.9
			c-0.2,0-0.4-0.2-0.4-0.4V15.5z"/>
		<path fill="#202A8E" d="M110.7,15.5c0-0.2,0.2-0.4,0.4-0.4h5.8c2.7,0,4.9,2.1,4.9,4.8c0,2.1-1.4,3.8-3.3,4.6l3.1,5.7
			c0.2,0.3,0,0.7-0.4,0.7h-1.1c-0.2,0-0.3-0.1-0.4-0.2l-3-6h-4.3v5.7c0,0.2-0.2,0.4-0.4,0.4h-0.9c-0.2,0-0.4-0.2-0.4-0.4V15.5z
			 M116.9,23.1c1.7,0,3.2-1.4,3.2-3.3c0-1.7-1.5-3.2-3.2-3.2h-4.4v6.5H116.9z"/>
		<path fill="#202A8E" d="M125.6,15.5c0-0.2,0.2-0.4,0.4-0.4h8.9c0.2,0,0.4,0.2,0.4,0.4v0.7c0,0.2-0.2,0.4-0.4,0.4h-7.6v6.2h6.5
			c0.2,0,0.4,0.2,0.4,0.4v0.7c0,0.2-0.2,0.4-0.4,0.4h-6.5v6.2c0,0.2-0.2,0.4-0.4,0.4H126c-0.2,0-0.4-0.2-0.4-0.4V15.5z"/>
		<path fill="#202A8E" d="M134.9,30.2l6.9-15.2c0.1-0.1,0.2-0.2,0.4-0.2h0.2c0.2,0,0.3,0.1,0.4,0.2l6.8,15.2c0.1,0.3,0,0.6-0.4,0.6
			h-0.9c-0.2,0-0.3-0.1-0.4-0.2l-1.7-3.7h-8l-1.6,3.7c0,0.1-0.2,0.2-0.4,0.2h-0.9C134.9,30.8,134.7,30.5,134.9,30.2z M145.6,25.4
			c-1.1-2.5-2.2-4.9-3.3-7.4h-0.2l-3.3,7.4H145.6z"/>
		<path fill="#202A8E" d="M158.4,14.8c2.3,0,3.9,0.8,5.5,2.1c0.2,0.2,0.2,0.5,0,0.6l-0.6,0.6c-0.2,0.2-0.4,0.2-0.6,0
			c-1.2-1-2.8-1.7-4.3-1.7c-3.6,0-6.3,3-6.3,6.5c0,3.5,2.7,6.5,6.3,6.5c2,0,3.1-0.8,4.3-1.7c0.2-0.2,0.4-0.2,0.5-0.1l0.7,0.6
			c0.2,0.1,0.1,0.5,0,0.6c-1.5,1.5-3.5,2.2-5.5,2.2c-4.5,0-8.1-3.6-8.1-8.1C150.3,18.4,153.9,14.8,158.4,14.8z"/>
		<path fill="#202A8E" d="M166.9,15.5c0-0.2,0.2-0.4,0.4-0.4h8.9c0.2,0,0.4,0.2,0.4,0.4v0.7c0,0.2-0.2,0.4-0.4,0.4h-7.6V22h6.5
			c0.2,0,0.4,0.2,0.4,0.4v0.7c0,0.2-0.2,0.4-0.4,0.4h-6.5v5.7h7.6c0.2,0,0.4,0.2,0.4,0.4v0.7c0,0.2-0.2,0.4-0.4,0.4h-8.9
			c-0.2,0-0.4-0.2-0.4-0.4V15.5z"/>
		<g>
			<path fill="#202A8E" d="M64.1,34.8c0-0.3,0.2-0.5,0.5-0.5h11.1c0.3,0,0.5,0.2,0.5,0.5v1.6c0,0.3-0.2,0.5-0.5,0.5H67v6.4h7.4
				c0.3,0,0.5,0.3,0.5,0.5v1.5c0,0.3-0.2,0.5-0.5,0.5H67v7.3c0,0.3-0.2,0.5-0.5,0.5h-1.8c-0.3,0-0.5-0.2-0.5-0.5V34.8z"/>
			<path fill="#202A8E" d="M86.3,38.4c4.3,0,7.8,3.5,7.8,7.8c0,4.3-3.4,7.7-7.8,7.7c-4.3,0-7.7-3.4-7.7-7.7
				C78.6,41.9,82,38.4,86.3,38.4z M86.3,51.8c3.1,0,5.6-2.5,5.6-5.6c0-3.1-2.5-5.6-5.6-5.6c-3.1,0-5.6,2.6-5.6,5.6
				C80.7,49.3,83.3,51.8,86.3,51.8z"/>
			<path fill="#202A8E" d="M97.9,39c0-0.2,0.2-0.4,0.4-0.4h1.6c0.3,0,0.4,0.2,0.4,0.4v8.9c0,2.2,1.5,3.8,3.9,3.8
				c2.4,0,3.9-1.7,3.9-3.8V39c0-0.2,0.2-0.4,0.4-0.4h1.6c0.2,0,0.4,0.2,0.4,0.4v9.1c0,3.3-2.7,5.8-6.4,5.8c-3.7,0-6.4-2.6-6.4-5.8
				V39z"/>
			<path fill="#202A8E" d="M115.2,38.8c0-0.2,0.2-0.4,0.4-0.4h0.6l10,10.8h0V39c0-0.2,0.2-0.4,0.4-0.4h1.5c0.2,0,0.4,0.2,0.4,0.4
				v14.5c0,0.2-0.2,0.4-0.4,0.4h-0.6l-10-11.1h0v10.5c0,0.2-0.2,0.4-0.4,0.4h-1.5c-0.2,0-0.4-0.2-0.4-0.4V38.8z"/>
			<path fill="#202A8E" d="M133.8,39c0-0.2,0.2-0.4,0.4-0.4h5c4.2,0,7.6,3.4,7.6,7.5c0,4.2-3.4,7.6-7.6,7.6h-5
				c-0.2,0-0.4-0.2-0.4-0.4V39z M138.8,51.7c3.2,0,5.5-2.3,5.5-5.5c0-3.2-2.3-5.5-5.5-5.5H136v11H138.8z"/>
			<path fill="#202A8E" d="M150,39c0-0.2,0.2-0.4,0.4-0.4h6.3c2.8,0,5,2,5,4.6c0,2-1.4,3.6-3.4,4.4l3.2,5.5c0.2,0.3,0,0.6-0.4,0.6
				h-1.8c-0.2,0-0.3-0.1-0.4-0.2l-3.1-5.7h-3.5v5.5c0,0.2-0.2,0.4-0.4,0.4h-1.5c-0.3,0-0.4-0.2-0.4-0.4V39z M156.5,45.9
				c1.5,0,2.8-1.2,2.8-2.7c0-1.4-1.3-2.6-2.8-2.6h-4.1v5.2H156.5z"/>
			<path fill="#202A8E" d="M169,46.4l-5.3-7.2c-0.2-0.3,0-0.6,0.4-0.6h1.7c0.2,0,0.3,0.1,0.4,0.2l4.1,5.5l4.1-5.5
				c0.1-0.1,0.2-0.2,0.4-0.2h1.7c0.4,0,0.5,0.3,0.4,0.6l-5.3,7.2v6.9c0,0.2-0.2,0.4-0.4,0.4h-1.5c-0.2,0-0.4-0.2-0.4-0.4V46.4z"/>
		</g>
	</g>
	<g>
		<g>
			<path fill="#EA47A4" d="M13.2,36.4c0,10.3,8.4,18.7,18.7,18.7s18.7-8.4,18.7-18.7c0.2-7.8-4.3-14.4-18.7-32.3
				C17.6,22.1,13,28.6,13.2,36.4L13.2,36.4z"/>
			<path fill="#202A8E" d="M31.9,56.2c-10.9,0-19.8-8.9-19.8-19.8l0-1.1c0.3-7.8,5.1-14.5,18.9-31.9l0.9-1.1l0.9,1.1
				c14.2,17.7,19.2,24.7,18.9,33C51.6,47.3,42.8,56.2,31.9,56.2z M14.3,37.3C14.8,46.6,22.5,54,31.9,54c9.7,0,17.5-7.9,17.5-17.5
				c0.2-7.4-4.4-14-17.6-30.5C18.5,22.8,14.2,29,14.3,36.4L14.3,37.3z"/>
		</g>
		<g>
			<path fill="#DDF46E" d="M55.5,18.5c-34.6,8.9-20,22.4-20,22.4S50.4,54.1,55.5,18.5z"/>
			<path fill="#202A8E" d="M41.7,44.4C41.7,44.4,41.7,44.4,41.7,44.4c-3.9,0-6.8-2.6-7-2.7c-0.2-0.2-4.5-4.2-3.1-9.6
				c1.5-6.1,9.5-11,23.6-14.6l1.6-0.4l-0.2,1.7C54.9,30.4,51,44.4,41.7,44.4z M54.2,20C39,24.2,34.7,29.1,33.8,32.5
				c-1,4.1,2.4,7.4,2.5,7.5c0,0,2.4,2.1,5.5,2.1C47.5,42.1,51.9,34.3,54.2,20z"/>
		</g>
		<g>
			<path fill="#57DDD0" d="M5.4,9.6c49.9,11,29.8,31,29.8,31S14.5,60.4,5.4,9.6z"/>
			<path fill="#202A8E" d="M26,45.5C13.4,45.5,7.2,26.1,4.3,9.8L4,8.2l1.6,0.4C25.9,13,37.4,19.6,39.8,28c2.1,7.4-3.6,13.2-3.9,13.5
				C35.7,41.6,31.6,45.5,26,45.5z M6.8,11.1C11.8,37.7,20,43.3,26,43.3c4.7,0,8.3-3.4,8.4-3.5c0,0,5.1-5.2,3.3-11.3
				C36.2,23.5,29.6,16.4,6.8,11.1z"/>
		</g>
		<path fill="#473F41" d="M37.7,25.8"/>
		<g opacity="0.8">
			<path fill="#202A8E" d="M42,33.8c0,0,0.7-0.9,1.8-2.2c1.1-1.3,2.6-3,4.1-4.8c1.5-1.7,3-3.4,4.2-4.7c1.2-1.2,2-2.1,2-2.1
				s-0.7,0.9-1.8,2.2c-1.1,1.3-2.6,3-4.1,4.8c-1.5,1.7-3,3.4-4.2,4.7C42.8,32.9,42,33.8,42,33.8z"/>
			<g>
				<g>
					<path fill="none" d="M39.5,34"/>
				</g>
			</g>
			<path fill="#202A8E" d="M42,33.9c0,0,0.2,0.5,0.4,1.1c0.2,0.7,0.5,1.6,0.8,2.5c0.2,0.9,0.5,1.9,0.6,2.6c0.1,0.7,0.2,1.2,0.2,1.2
				s-0.2-0.5-0.4-1.1c-0.2-0.7-0.5-1.6-0.8-2.5c-0.2-0.9-0.5-1.9-0.6-2.6C42.1,34.4,42,33.9,42,33.9z"/>
			<path fill="#202A8E" d="M51.1,31.8c0,0-0.5,0.2-1.4,0.4c-0.8,0.2-1.9,0.5-3.1,0.8c-1.1,0.2-2.2,0.5-3.1,0.6
				c-0.8,0.1-1.4,0.2-1.4,0.2s0.5-0.2,1.4-0.4c0.8-0.2,1.9-0.5,3.1-0.8c1.1-0.2,2.2-0.5,3.1-0.6C50.5,31.9,51.1,31.8,51.1,31.8z"/>
			<path fill="#202A8E" d="M42,33.7c0,0,0-0.6,0.1-1.4c0-0.9,0.2-2,0.3-3.2c0.1-1.1,0.3-2.3,0.4-3.2c0.1-0.9,0.3-1.4,0.3-1.4
				s0,0.6-0.1,1.4c0,0.9-0.2,2-0.3,3.2c-0.1,1.1-0.3,2.3-0.4,3.2C42.1,33.1,42,33.7,42,33.7z"/>
			<path fill="#202A8E" d="M48.2,37.6c0,0-0.4-0.2-1-0.5c-0.6-0.3-1.4-0.8-2.2-1.3c-0.8-0.5-1.5-1-2.1-1.4c-0.6-0.4-0.9-0.7-0.9-0.7
				s0.4,0.2,1,0.5c0.6,0.3,1.4,0.8,2.2,1.3c0.8,0.5,1.5,1,2.1,1.4C47.9,37.3,48.2,37.6,48.2,37.6z"/>
			<path fill="#202A8E" d="M39.5,40.7c0,0,0.1-0.5,0.3-1.1c0.2-0.7,0.5-1.5,0.8-2.4c0.3-0.9,0.7-1.7,0.9-2.4
				c0.3-0.6,0.5-1.1,0.5-1.1s-0.1,0.5-0.3,1.1c-0.2,0.7-0.5,1.5-0.8,2.4c-0.3,0.9-0.7,1.7-0.9,2.4C39.7,40.3,39.5,40.7,39.5,40.7z"
				/>
		</g>
		<g>
			<path fill="#202A8E" d="M7,11.3c3.1,3.1,6.2,6.3,9.2,9.5c3.1,3.2,6.1,6.4,9.1,9.7l-0.1,0c2.1,0.2,4.2,0.4,6.3,0.7
				c-2.1-0.1-4.2-0.3-6.4-0.4l0,0l0,0C22,27.5,19,24.3,16,21C12.9,17.8,9.9,14.6,7,11.3z"/>
			<path fill="#202A8E" d="M25.2,30.5c0,0-0.1,0.8-0.3,1.9c-0.2,1.1-0.5,2.6-0.9,4.1c-0.4,1.5-0.7,3-1,4.1c-0.3,1.1-0.5,1.9-0.5,1.9
				s0.1-0.8,0.3-1.9c0.2-1.1,0.5-2.6,0.9-4.1c0.4-1.5,0.7-3,1-4.1C25,31.3,25.2,30.5,25.2,30.5z"/>
			<g>
				<g>
					<path fill="none" d="M16.7,12.5"/>
				</g>
			</g>
			<path fill="#202A8E" d="M11.8,29c0,0,0.8,0,2.1,0.1c1.3,0.1,2.9,0.3,4.6,0.5c1.7,0.2,3.3,0.4,4.6,0.6c1.2,0.2,2.1,0.3,2.1,0.3
				s-0.8,0-2.1-0.1c-1.3-0.1-2.9-0.3-4.6-0.5c-1.7-0.2-3.3-0.4-4.6-0.6C12.6,29.1,11.8,29,11.8,29z"/>
			<g>
				<g>
					<path fill="none" d="M7.4,20"/>
				</g>
			</g>
			<path fill="#202A8E" d="M25.2,30.5c0,0,0-0.8,0-2c0-1.2,0-2.8,0.1-4.5c0.1-1.6,0.2-3.2,0.3-4.5c0.1-1.2,0.2-2,0.2-2s0,0.8,0,2
				c0,1.2,0,2.8-0.1,4.5c-0.1,1.6-0.2,3.2-0.3,4.5C25.3,29.7,25.2,30.5,25.2,30.5z"/>
			<path fill="#202A8E" d="M16.2,36.6c0,0,1.1-0.8,2.8-2.1c1.7-1.2,4-2.9,6.3-4.5c2.3-1.6,4.7-3.2,6.4-4.3c1.8-1.1,3-1.9,3-1.9
				s-1.1,0.8-2.8,2.1c-1.7,1.2-4,2.9-6.3,4.5c-2.3,1.6-4.7,3.2-6.4,4.3C17.4,35.9,16.2,36.6,16.2,36.6z"/>
			<path fill="#202A8E" d="M25.2,30.5c0,0,0.5,0.6,1.3,1.5c0.8,0.9,1.8,2.1,2.8,3.4c1,1.3,1.9,2.5,2.6,3.5c0.7,1,1.1,1.6,1.1,1.6
				s-0.5-0.6-1.3-1.5c-0.8-0.9-1.8-2.1-2.8-3.4c-1-1.3-1.9-2.5-2.6-3.5C25.6,31.2,25.2,30.5,25.2,30.5z"/>
		</g>
		<path fill="#202A8E" d="M34.4,41.2c-2.5-2.9-3.4-5.9-2.9-8.8c0.8-4.8,5.5-7.5,5.7-7.6l1.1,1.9c0,0-4,2.3-4.6,6.1
			c-0.4,2.2,0.4,4.5,2.4,6.9L34.4,41.2z"/>
		<path fill="#EA47A4" d="M37.3,27.4c0,0,3,5.5-2,11.4C35.2,38.8,30.3,32.6,37.3,27.4z"/>
	</g>
</g>
</svg>
