<?xml version="1.0" encoding="utf-8"?>
<!-- Generator: Adobe Illustrator 18.0.0, SVG Export Plug-In . SVG Version: 6.00 Build 0)  -->
<!DOCTYPE svg PUBLIC "-//W3C//DTD SVG 1.1//EN" "http://www.w3.org/Graphics/SVG/1.1/DTD/svg11.dtd">
<svg version="1.1" id="Layer_1" xmlns="http://www.w3.org/2000/svg" xmlns:xlink="http://www.w3.org/1999/xlink" x="0px" y="0px"
	 viewBox="0 0 400 400" enable-background="new 0 0 400 400" xml:space="preserve">
<g>
	<path fill="#2888FF" d="M149.6,329.9c0,0,25.5,5.9,50.5,5.9c24.8,0,50-5.7,50-5.7c11.7-2.7,14.4,2.1,5.9,10.6l-40.5,40.8
		c-0.2,0.2-0.4,0.3-0.5,0.4l-14.9,15.1l-15.3-15.4c0,0-0.1,0-0.1-0.1l-41-41.1C135.3,331.9,138,327.2,149.6,329.9z"/>
</g>
<g>
	<path fill="#2888FF" d="M54.1,154.1c0-82.5,65.3-149.4,145.8-149.4c80.5,0,145.8,66.9,145.8,149.4c0,82.5-65.3,149.4-145.8,149.4
		C119.4,303.5,54.1,236.6,54.1,154.1z"/>
</g>
<g>
	<path fill="#1A63CD" d="M136.1,154.1c0-35.3,28.6-63.9,63.9-63.9c35.3,0,63.9,28.6,63.9,63.9s-28.6,63.9-63.9,63.9
		C164.7,217.9,136.1,189.3,136.1,154.1z"/>
</g>
</svg>
