<?xml version="1.0" encoding="utf-8"?>
<!-- Generator: Adobe Illustrator 18.0.0, SVG Export Plug-In . SVG Version: 6.00 Build 0)  -->
<!DOCTYPE svg PUBLIC "-//W3C//DTD SVG 1.1//EN" "http://www.w3.org/Graphics/SVG/1.1/DTD/svg11.dtd">
<svg version="1.1" id="Layer_1" xmlns="http://www.w3.org/2000/svg" xmlns:xlink="http://www.w3.org/1999/xlink" x="0px" y="0px"
	 viewBox="0 0 42 42" enable-background="new 0 0 42 42" xml:space="preserve">
<g>
	<path fill="#FFFFFF" d="M31.6,6.6c-8.5,20.9-5.9,29.9-5.9,29.9l-3.5-2c0,0,0.3-8.1,9.1-28c0,0,0.1-0.2,0.2-0.1
		C31.6,6.4,31.6,6.6,31.6,6.6z"/>
	<g>
		<polygon fill="#FFFFFF" points="27.7,28 35,33.4 37,28 27.7,26.2 		"/>
		<path fill="#FFFFFF" d="M37.7,16.5l-9.5,6l-0.3,2.9l9.5,0.9C37.3,26.2,38.7,21.9,37.7,16.5z"/>
		<path fill="#FFFFFF" d="M34.6,3.9c0,0,2.2,6.8,2.9,10.9l-9.2,6.9C28.2,21.6,30.6,10.2,34.6,3.9z"/>
	</g>
	<g>
		<g>
			<path fill="#FFFFFF" d="M11,28L0.3,16.4L22.6,21C22.6,21,17.8,22.2,11,28z"/>
		</g>
		<g>
			<path fill="#FFFFFF" d="M24.5,21c-0.3,0.1-0.6,0.3-0.9,0.3C18.1,23.7,12.6,29,12.6,29l7.9,4.3C20.5,33.4,22.9,24.8,24.5,21z"/>
		</g>
	</g>
</g>
</svg>
