<?xml version="1.0" encoding="utf-8"?>
<!-- Generator: Adobe Illustrator 16.0.0, SVG Export Plug-In . SVG Version: 6.00 Build 0)  -->
<!DOCTYPE svg PUBLIC "-//W3C//DTD SVG 1.1//EN" "http://www.w3.org/Graphics/SVG/1.1/DTD/svg11.dtd">
<svg version="1.1" id="Layer_1" xmlns="http://www.w3.org/2000/svg" xmlns:xlink="http://www.w3.org/1999/xlink" x="0px" y="0px"
	 width="40px" height="40px" viewBox="0 0 40 40" enable-background="new 0 0 40 40" xml:space="preserve">
<g>
	<circle fill="#CCCCCC" cx="20.008" cy="19.992" r="19.992"/>
</g>
<rect x="8.008" y="7.992" display="none" fill="#ED1C24" width="24" height="24"/>
<path fill="none" d="M5.542,5.471h29.042v29.042H5.542V5.471z"/>
<path display="none" fill="#777777" d="M29.742,7.891h-19.36c-1.337,0-2.409,1.083-2.409,2.42L7.961,32.093l4.841-4.841h16.94
	c1.339,0,2.422-1.082,2.422-2.421v-14.52C32.164,8.974,31.081,7.891,29.742,7.891z M15.222,22.412h-2.42v-2.42h2.42V22.412z
	 M15.222,18.782h-2.42v-2.42h2.42V18.782z M15.222,15.151h-2.42v-2.42h2.42V15.151z M23.692,22.412h-6.05v-2.42h6.05V22.412z
	 M27.322,18.782h-9.68v-2.42h9.68V18.782z M27.322,15.151h-9.68v-2.42h9.68V15.151z"/>
<path fill="none" d="M5.471,5.471h29.059v29.059H5.471V5.471z"/>
<path fill="none" d="M12,3h48v48H12V3z"/>
<path fill="none" d="M4.026,4.014H36v31.973H4.026V4.014z"/>
<path fill="#777777" d="M30.672,9.343H9.356v2.664h21.316V9.343z M32.002,22.664v-2.663l-1.33-6.662H9.356l-1.333,6.662v2.663h1.333
	v7.994h13.322v-7.994h5.329v7.994h2.665v-7.994H32.002z M20.013,27.994h-7.993v-5.33h7.993V27.994z"/>
</svg>
