<?xml version="1.0" encoding="utf-8"?>
<!-- Generator: Adobe Illustrator 16.0.0, SVG Export Plug-In . SVG Version: 6.00 Build 0)  -->
<!DOCTYPE svg PUBLIC "-//W3C//DTD SVG 1.1//EN" "http://www.w3.org/Graphics/SVG/1.1/DTD/svg11.dtd">
<svg version="1.1" id="Layer_1" xmlns="http://www.w3.org/2000/svg" xmlns:xlink="http://www.w3.org/1999/xlink" x="0px" y="0px"
	 width="75px" height="75px" viewBox="0 0 75 75" enable-background="new 0 0 75 75" xml:space="preserve">
<path fill="#FFFFFF" d="M26.534,27.14c-0.191,0-0.385-0.016-0.58-0.048l-53.06-8.726c-1.934-0.318-3.244-2.143-2.925-4.077
	c0.317-1.934,2.146-3.248,4.077-2.925l53.06,8.726c1.934,0.318,3.244,2.143,2.925,4.077C29.745,25.905,28.24,27.14,26.534,27.14z"/>
<path fill="#FFFFFF" d="M26.534,44.379c-0.191,0-0.385-0.016-0.58-0.048l-53.06-8.725c-1.934-0.318-3.244-2.143-2.925-4.077
	c0.317-1.934,2.146-3.247,4.077-2.925l53.06,8.725c1.934,0.318,3.244,2.143,2.925,4.077C29.745,43.145,28.24,44.379,26.534,44.379z"
	/>
<path fill="#FFFFFF" d="M26.534,62.334c-0.191,0-0.385-0.016-0.58-0.048l-53.06-8.726c-1.934-0.317-3.244-2.144-2.925-4.077
	c0.317-1.934,2.146-3.247,4.077-2.925l53.06,8.726c1.934,0.317,3.244,2.144,2.925,4.077C29.745,61.1,28.24,62.334,26.534,62.334z"/>
</svg>
