<?xml version="1.0" encoding="utf-8"?>
<!-- Generator: Adobe Illustrator 16.0.0, SVG Export Plug-In . SVG Version: 6.00 Build 0)  -->
<!DOCTYPE svg PUBLIC "-//W3C//DTD SVG 1.1//EN" "http://www.w3.org/Graphics/SVG/1.1/DTD/svg11.dtd">
<svg version="1.1" id="Layer_1" xmlns="http://www.w3.org/2000/svg" xmlns:xlink="http://www.w3.org/1999/xlink" x="0px" y="0px"
	 width="180px" height="230px" viewBox="0 0 180 230" enable-background="new 0 0 180 230" xml:space="preserve">
<path fill="#5DD3E8" stroke="#000000" stroke-width="1.8419" stroke-miterlimit="10" d="M-329.943,149.545l-16.864-1.385
	c0,0-1.476-0.316-1.792,2.125c-0.316,2.437-2.004,6.109,3.055,6.41c5.057,0.301,12.505,1.03,12.505,1.03s3.315,0.422,3.37-3.058
	C-329.615,151.189-327.647,149.736-329.943,149.545z"/>
<path fill="#7B8AD6" stroke="#000000" stroke-width="1.8419" stroke-miterlimit="10" d="M-304.05,41.121
	c0,0,1.534-8.406,11.665-8.406c10.132,0,10.439,9.139,10.439,9.139S-295.147,42.158-304.05,41.121z"/>
<path fill="#A953AA" stroke="#000000" stroke-width="1.8419" stroke-miterlimit="10" d="M-292.014,32.291l-0.63-15.227
	c0,0,4.154-1.388,4.154-6.146c0-4.759-5.108-4.759-5.108-4.759s-5.329,1.075-4.562,6.14c0,0,0.154,2.149,4.292,4.613l-0.748,15.54
	L-292.014,32.291z"/>
<path fill="#5DD3E8" stroke="#000000" stroke-width="1.8419" stroke-miterlimit="10" d="M-321.243,41.121c0,0,46.422,1.665,54.56,0
	l-2.562,39.148c0,0-40.324,2.076-49.386,0.227C-318.632,80.495-320.688,62.019-321.243,41.121z"/>
<path fill="#A953AA" stroke="#000000" stroke-width="1.3814" stroke-miterlimit="10" d="M-321.687,49.446c0,0-3.829,0-3.829,7.162
	c0,7.163,5.171,8.877,5.171,8.877L-321.687,49.446z"/>
<path fill="#A953AA" stroke="#000000" stroke-width="1.3814" stroke-miterlimit="10" d="M-266.683,50.443c0,0,4.956,0,4.956,6.272
	c0,6.271-6.114,7.772-6.114,7.772L-266.683,50.443z"/>
<path fill="#FCFCFC" stroke="#000000" stroke-width="1.8419" stroke-miterlimit="10" d="M-308.367,53.226
	c0,0-3.742,1.036-3.281,5.928c0.46,4.893,4.893,4.835,4.893,4.835s5.468,0,5.468-4.95C-301.288,54.088-307.216,53.11-308.367,53.226
	z"/>
<path d="M-307.734,56.967c0,0-1.266,0.748-0.576,2.302c0.691,1.554,3.569,0.534,3.569,0.534s0.806-2.836-1.093-2.836
	C-307.734,56.967-307.734,56.967-307.734,56.967z"/>
<path fill="#FCFCFC" stroke="#000000" stroke-width="1.8419" stroke-miterlimit="10" d="M-283.501,53.227
	c0,0-4.086,0.93-4.086,5.525c0,4.595,4.489,5.361,5.697,5.361c1.209,0,5.584-0.875,5.124-3.609
	c-0.461-2.735-2.612-6.378-5.124-7.276C-282.727,52.928-283.501,53.227-283.501,53.227z"/>
<path d="M-282.408,57.411c0,0-1.783,0.028-1.957,1.997c-0.173,1.969,3.568,0.766,3.568,0.766s1.468-0.958,0-2.353
	C-281.861,56.81-282.408,57.411-282.408,57.411z"/>
<path d="M-302.812,70.378c0,0,0.978-0.432,2.302,0.72c1.324,1.151,5.842,0.834,6.706,0.834s3.771,0.259,5.469-0.518
	c1.697-0.777,2.1-0.95,3.194-0.95c1.094,0-1.295,2.504-1.295,2.504s-0.577,0.921-7.225,0.921c-6.648,0-6.85-0.259-8.404-1.18
	C-303.619,71.788-302.812,70.378-302.812,70.378z"/>
<polygon fill="#7A89D4" stroke="#000000" stroke-width="1.8419" stroke-miterlimit="10" points="-307.268,80.966 -306.522,87.704 
	-285.626,87.704 -285.626,80.687 "/>
<path fill="#5DD3E8" stroke="#000000" stroke-width="1.8419" stroke-miterlimit="10" d="M-325.449,87.704
	c3.99,46.554,5.171,45.86,5.171,63.815h50.923c0,0,2.304-0.461,2.609-3.989c0.308-3.533-1.417-37.761,0.118-57.561
	c0,0,0.462-2.265-2.455-2.265c-2.916,0-37.339,1.957-53.454-0.652C-322.537,87.052-323.76,86.514-325.449,87.704z"/>
<linearGradient id="SVGID_1_" gradientUnits="userSpaceOnUse" x1="-312.2256" y1="107.4106" x2="-277.3521" y2="107.4106">
	<stop  offset="0" style="stop-color:#5CD1E6"/>
	<stop  offset="1" style="stop-color:#B37CFF"/>
</linearGradient>
<polygon fill="url(#SVGID_1_)" points="-311.925,101.018 -312.226,114.883 -277.352,114.883 -277.892,99.938 "/>
<path d="M-313.53,99.945c0,0,0.423,10.132,0.73,15.35h35.765V99.024L-313.53,99.945z M-279.478,101.704
	c0.465,0.275,0.342,0.874,0.477,1.361c0.235-0.022,0.489-0.077,0.732-0.044c0.063,1.141-0.239,1.423-1.325,1.317
	c-0.443-0.043-1.836,0.208-2.175,0.004c-0.465-0.279-0.102-1.845-0.235-2.365l-0.403-0.402
	C-281.627,101.576-280.159,101.299-279.478,101.704z M-290.898,109.333c-0.184-0.005-0.279-0.146-0.443-0.163
	c-0.223-0.021-0.643,0.205-0.844,0.052c-0.246-0.188-0.211-1.158-0.227-1.408c-0.033-0.545,0.113-1.267-0.033-1.814
	c-0.05,0.002-0.1,0.008-0.152,0.008l0.116-0.172c0.02,0.05,0.022,0.11,0.036,0.165c0.952-0.024,1.884-0.239,2.835-0.148
	C-289.556,107.019-289.327,109.379-290.898,109.333z M-299.096,108.541c-0.153,0.623-0.197,0.511-0.692,0.575
	c-0.309,0.04-0.738,0.042-1.042-0.013c-0.611-0.11-1.142-0.573-1.033-1.253c0.146-0.921,1.571-1.268,2.072-2.015l0.173,0.172
	c-0.069,0-0.139,0-0.208,0c0.292,0,0.587-0.005,0.878,0.009C-298.809,106.667-298.942,107.914-299.096,108.541z M-311.408,102.163
	c0.317-0.639,0.866-0.481,1.429-0.645l-0.345,0.115c0.782,0,1.573-0.027,2.351,0.008c0.044,0.762,0.315,2.499-0.118,3.135
	c-0.301,0.443-1.223,0.283-1.722,0.187c-0.455-0.087-1.267-0.333-1.55-0.726c-0.22-0.305-0.17-0.581-0.17-0.977
	C-311.533,102.886-311.573,102.497-311.408,102.163z M-310.785,114.238l-0.403,0.115c0.002-0.802-0.124-1.59-0.161-2.373
	c-0.009-0.176-0.082-0.307-0.062-0.496c1.288-0.076,2.741-0.143,4.019,0.01c0.031,0.985,0.018,1.981,0.001,2.967
	C-308.487,114.6-309.671,114.187-310.785,114.238z M-307.682,109.973c-1.155,0.042-2.421,0.224-3.563,0.113
	c0.195-1.148,0.288-2.257,0.288-3.444l0.173-0.115c0.131,0.298,3.089-0.077,3.456-0.049
	C-307.312,107.651-307.696,108.812-307.682,109.973z M-306.123,104.178c-0.028-0.795,0.117-1.835-0.102-2.593
	c-0.06-0.002-0.131-0.011-0.186-0.01l0.172-0.058c0.007,0.021,0.007,0.047,0.013,0.068c1.355,0.041,3.919,0.854,2.503,2.408
	c-0.441,0.485-1.449,1.797-2.234,1.039C-306.175,104.819-306.113,104.454-306.123,104.178z M-303.253,114.653
	c0-0.005,0-0.011,0-0.017l-2.293-0.11c0-1.217-0.067-2.464,0.009-3.678c0.732,0.148,1.525,0.886,2.284,0.804
	c0.061,0.974,0.042,2.005,0,2.983l0.124,0.005C-303.184,114.706-303.226,114.71-303.253,114.653z M-304.856,109.174
	c-1.553-0.206-1.32-2.851,0.23-2.763l0.403-0.115c0.756,0.227,1.205,1.187,1.094,1.945
	C-303.264,109.175-304,109.286-304.856,109.174z M-302.548,101.745c-0.019,0-0.044,0.004-0.062,0.003l0.057-0.057
	C-302.548,101.707-302.553,101.729-302.548,101.745c1.014,0.004,2.991-0.738,3.278,0.591c0.132,0.611,0.181,2.208-0.361,2.657
	c-0.497,0.41-2.396,0.544-2.753-0.077C-302.848,104.116-302.295,102.641-302.548,101.745z M-298.921,114.257
	c-0.492-0.047-0.896,0.187-1.329,0.085c-0.635-0.149-1.201-0.542-1.861-0.603c0.096-0.893,0.428-1.823,0.362-2.725l-0.402,0.173
	c0.532-0.305,0.894-1.135,1.531-1.212c0.166-0.019,0.308,0.103,0.481,0.117c0.477,0.042,0.956-0.077,1.423-0.053
	C-298.323,111.043-298.292,113.457-298.921,114.257z M-297.488,101.46h-0.173c0.554,0,1.814-0.22,2.191,0.134
	c0.325,0.305,0.51,1.6,0.574,2.049c0.093,0.645,0.009,0.638-0.471,0.752c-0.44,0.104-1.13-0.008-1.562-0.069
	c-0.647-0.091-0.614-0.177-0.617-0.775C-297.55,102.857-297.594,102.146-297.488,101.46z M-297.445,106.292
	c-0.015,0-0.029,0.004-0.043,0.004v-0.288C-297.464,106.098-297.462,106.198-297.445,106.292c0.477-0.007,1.041-0.136,1.497-0.054
	c0.505,0.093,1.86,0.92,1.917,1.439c0.071,0.647-0.938,1.508-1.447,1.611c-0.604,0.122-1.33,0.084-1.946,0.049
	C-297.464,108.365-297.274,107.253-297.445,106.292z M-293.517,111.926c0.002,1.288-0.742,2.32-1.78,3.154
	c-0.05-0.208-0.109-0.565-0.25-0.726c-0.269-0.309-0.9-0.162-1.133-0.403c-0.308-0.318-0.093-1.121-0.114-1.568
	c-0.027-0.556-0.167-0.949,0.179-1.426c0.425-0.588,1.241-0.97,1.948-0.921l-0.403-0.402c0.363,0.436,1.202,0.265,1.5,0.704
	C-293.354,110.656-293.518,111.57-293.517,111.926z M-293.229,101.461c-0.039,0-0.076-0.001-0.115-0.001L-293.229,101.461
	L-293.229,101.461c0.414-0.001,0.828-0.006,1.24,0.011c0.464,0.021,1.805-0.054,2.121,0.304c0.204,0.229,0.046,1.294,0.036,1.561
	c-0.021,0.578,0.048,0.935-0.473,1.059c-0.443,0.105-1.098-0.157-1.561-0.173c-0.338-0.012-0.96,0.13-1.24-0.114
	C-293.573,103.699-293.378,102.014-293.229,101.461z M-289.371,113.958c-0.56-0.177-1.294-0.128-1.895-0.126
	c-0.459-0.801-0.734-1.799-1.389-2.519c0.406-0.351,1.167-0.927,1.381-1.332c-0.073,0.017-0.143,0.034-0.229,0.055l0.23-0.057
	c0,0.001-0.001,0.001-0.001,0.002c0.337-0.083,0.547-0.162,0.808-0.526c0.713,0.532,1.274,0.783,1.381,1.613
	C-288.987,111.837-288.972,113.276-289.371,113.958z M-288.448,101.416c-0.056-0.003-0.11-0.012-0.165-0.014
	c0.054,0,0.107,0.001,0.161,0.001L-288.448,101.416c1.456,0.067,2.924,0.467,4.364,0.457c0.027,0.658,0.18,1.675-0.062,2.29
	c-0.847,0.023-1.733,0.222-2.556,0.227c-0.681,0.003-1.027-0.653-1.746-0.587c0.036-0.718,0.054-1.44,0.054-2.168L-288.448,101.416z
	 M-287.473,106.123l-0.288-0.345c1.162,0.284,2.274-0.035,3.388,0.061c-0.001,0.972,0.214,1.934,0.175,2.928
	c-1.057,0.028-2.109-0.143-3.14-0.117C-287.475,107.832-287.472,106.961-287.473,106.123z M-283.848,113.494
	c-0.928,0.036-2.225,0.029-3.103-0.301c0.027-1.072-0.37-2.125-0.35-3.213l1.094,0.288c-0.05,0.016-0.098,0.032-0.147,0.047
	c0.886,0.032,1.861,0.027,2.741,0.139C-283.575,111.461-283.82,112.481-283.848,113.494z M-279.453,113.65
	c-0.547-0.037-1.301-0.305-1.702-0.716c-0.608-0.62-0.298-1.308-0.249-1.991c-0.088,0.008-0.18,0.018-0.256,0.014l0.229-0.518
	c0.04,0.167,0.038,0.335,0.026,0.504c0.943-0.078,2.504-0.677,2.796,0.311C-278.37,112.061-278.411,113.721-279.453,113.65z
	 M-278.547,108.484c-0.382,0.153-0.991-0.044-1.407,0.02c-0.763,0.119-1.433,0.362-2.22,0.318c-0.021-0.917,0.436-2.099,0.246-2.95
	c-0.256,0.009-0.514,0.021-0.767,0.021l0.748-0.173c0.015,0.046,0.006,0.104,0.019,0.152c1.295-0.045,2.596-0.17,3.885-0.087
	C-277.995,106.522-277.806,108.186-278.547,108.484z"/>
<path fill="#5DD3E8" stroke="#000000" stroke-width="1.8419" stroke-miterlimit="10" d="M-258.898,95.508
	c0,0,7.974,0.038,8.564,1.606c0,0,5.348,48.188,5.976,50.216l-10.898,0.896C-255.256,148.227-257.745,108.12-258.898,95.508z"/>
<path fill="#7A89D4" stroke="#000000" stroke-width="1.8028" stroke-miterlimit="10" d="M-269.163,152.226
	c-0.215,0.388,0.298,4.985-2.349,5.026c-2.647,0.04-17.202,0.264-17.202,0.264s-1.765,0.027-1.784-1.277
	c-0.021-1.305-0.066-4.298-0.066-4.298l21.398,0.056"/>
<path fill="#5DD3E8" stroke="#000000" stroke-width="1.8419" stroke-miterlimit="10" d="M-317.25,157.505v25.631
	c0,0,0.46,1.69-1.381,1.69h15.138c0,0-0.766-1.534-0.613-2.61c0.152-1.073,1.975-21.88,2.818-24.677L-317.25,157.505z"/>
<path fill="#7A89D4" stroke="#000000" stroke-width="1.7212" stroke-miterlimit="10" d="M-320.248,185.519c0,0-0.066,9.055,0,9.135
	c0.067,0.074,1.742,1.149,6.97,1.073c5.228-0.077,9.853-0.307,10.523-0.614c0.67-0.308,1.742-1.459,1.474-5.143
	c-0.268-3.683-0.335-5.144-0.335-5.144h-18.363"/>
<path fill="#5DD3E8" stroke="#000000" stroke-width="1.8419" stroke-miterlimit="10" d="M-317.681,213.532
	c1.075-1.076,1.695-18.21,1.695-18.21c1.155-0.174,12.324-0.824,12.324-0.824l-0.23,9.67c0.044,6.166-0.287,9.288-0.287,9.288
	L-317.681,213.532z"/>
<path fill="#A953AA" stroke="#000000" stroke-width="1.8419" stroke-miterlimit="10" d="M-320.857,214.244l-1.409,9.648h25.072
	l-2.042-8.519c0,0-1.23-2.379-4.07-2.379C-306.146,212.995-320.857,214.244-320.857,214.244z"/>
<path fill="#7A89D4" stroke="#000000" stroke-width="1.7865" stroke-miterlimit="10" d="M-318.539,157.473
	c0,0,17.32,0.415,19.27-0.813c1.95-1.227,1.227-4.374,1.227-4.374l-20.684-0.384L-318.539,157.473z"/>
<path fill="#5DD3E8" stroke="#000000" stroke-width="1.8419" stroke-miterlimit="10" d="M-287.215,157.214l1.698,26h12.933
	c0,0-0.464-19.681,0-26C-272.584,157.214-277.052,157.323-287.215,157.214z"/>
<path fill="#A953AA" stroke="#000000" stroke-width="1.8419" stroke-miterlimit="10" d="M-289.146,212.305l-1.32,11.588h19.488
	c0,0,2.378,0.075,2.839-3.684c0.461-3.76-0.915-7.828-3.064-7.904C-273.352,212.229-289.146,212.305-289.146,212.305z"/>
<path fill="#5DD3E8" stroke="#000000" stroke-width="1.8419" stroke-miterlimit="10" d="M-331.729,150.68
	c0,0-0.103-1.151-2.699-1.151h-9.71l10.567-0.574c0,0,2.043-33.449,1.842-36.048s-2.674-15.613-2.674-15.613
	s-0.521-1.365-4.217-1.785c0,0-4.108,0.215-4.108,2.082c0,36.517-0.325,34.854-1.434,51.364"/>
<path fill="#5DD3E8" stroke="#000000" stroke-width="1.8419" stroke-miterlimit="10" d="M-287.035,193.961
	c0,0,1.521,7.373,0.79,18.651c-0.112,1.728,12.202,0,12.202,0s1.075-2.149,0.69-10.438c-0.384-8.287,0.084-9.286,0.084-9.286
	L-287.035,193.961z"/>
<path fill="none" stroke="#000000" stroke-width="1.8419" stroke-miterlimit="10" d="M-272.584,183.679"/>
<path fill="#7A89D4" stroke="#000000" stroke-width="1.7709" stroke-miterlimit="10" d="M-270.133,190.702v-5.904
	c0,0,0.087-1.291-1.72-1.291c-1.805,0-14.92,0-14.92,0s-2.112-0.18-2.112,0.78c0,0.962,0,2.614,0,2.614
	c0,3.215-1.165,7.597,2.908,7.597c4.071,0,15.353,0,15.353,0s0.283,0.311,0.496-3.873"/>
<path fill="#7B8AD6" stroke="#000000" stroke-width="1.8419" stroke-miterlimit="10" d="M-325.649,90.705l-9.483,2.525
	c0,0-0.46,4.777,1.381,15.915c0,0-0.46,4.364,2.188,4.364s7.571-0.737,7.571-0.737S-325.146,98.771-325.649,90.705z"/>
<path fill="none" stroke="#EC008C" stroke-width="1.8419" stroke-miterlimit="10" d="M-335.184,148.485"/>
<path fill="none" stroke="#EC008C" stroke-width="1.8419" stroke-miterlimit="10" d="M-332.485,149.637"/>
<path fill="#5DD3E8" stroke="#000000" stroke-width="1.8419" stroke-miterlimit="10" d="M-255.386,148.889
	c0,0,1.1,3.267-1.803,4.022c-2.903,0.755-1.3,1.771-0.976,3.45c0.324,1.678,2.456,2.396,14.889-0.004l3.473-0.546l-1.498-7.76
	L-255.386,148.889z"/>
<path fill="#7B8AD6" stroke="#000000" stroke-width="1.8419" stroke-miterlimit="10" d="M-265.962,92.961
	c1.631-0.337,9.567-1.773,10.473,2.286l-1.856,18.461l-9.175,2.788L-265.962,92.961z"/>
<path fill="none" stroke="#EC008C" stroke-width="1.8419" stroke-miterlimit="10" d="M51.896,148.119"/>
<g>
	<g>
		<g>
			<path fill="#7B8AD6" d="M80.33,39.602c0,0,1.534-8.404,11.664-8.404c10.133,0,10.439,9.139,10.439,9.139
				S89.233,40.641,80.33,39.602z"/>
			<path d="M97.9,41.298c-5.007,0-12.139-0.136-17.677-0.781l-0.976-0.114l0.177-0.966c0.017-0.091,1.796-9.161,12.57-9.161
				c10.897,0,11.356,9.929,11.359,10.029l0.031,0.93l-0.93,0.021C102.455,41.256,100.641,41.298,97.9,41.298z M81.505,38.804
				c5.279,0.536,11.755,0.652,16.396,0.652c1.493,0,2.709-0.013,3.5-0.024c-0.385-2.168-2.073-7.314-9.406-7.314
				C84.647,32.117,82.222,36.74,81.505,38.804z"/>
		</g>
		<g>
			<path fill="#A953AA" d="M92.366,30.771l-0.63-15.227c0,0,4.154-1.387,4.154-6.145c0-4.76-5.108-4.76-5.108-4.76
				s-5.329,1.076-4.562,6.141c0,0,0.154,2.148,4.292,4.611l-0.748,15.541L92.366,30.771z"/>
			<path d="M88.795,31.917l0.771-16.024c-3.97-2.519-4.245-4.787-4.264-5.046C84.6,6.227,88.46,4.17,90.601,3.738l0.182-0.018
				c2.085,0,6.029,1.187,6.029,5.68c0,3.771-2.419,5.91-4.128,6.747l0.641,15.487L88.795,31.917z M91.098,22.393l-0.364,7.559
				l0.674-0.043L91.098,22.393z M90.874,5.564c-0.742,0.175-4.326,1.226-3.742,5.078c0.008,0.061,0.291,1.84,3.852,3.959
				l0.241,0.144l0.221-0.073c0.139-0.049,3.524-1.262,3.524-5.271C94.97,5.893,91.595,5.589,90.874,5.564z"/>
		</g>
	</g>
	<g display="none">
		<g display="inline">
			<path fill="#5DD3E8" d="M63.138,39.602c0,0,46.422,1.666,54.56,0l-2.562,39.148c0,0-40.324,2.076-49.386,0.227
				C65.749,78.977,63.692,60.5,63.138,39.602z"/>
			<path d="M80.938,80.665c-7.646,0-12.819-0.265-15.374-0.786l-0.657-0.134l-0.074-0.666c-0.021-0.186-2.066-18.755-2.616-39.452
				l-0.026-0.98l0.98,0.035c0.206,0.008,20.801,0.739,36.765,0.739c9.324,0,15.238-0.243,17.577-0.722l1.183-0.241L116,79.628
				l-0.818,0.042C114.988,79.68,95.688,80.665,80.938,80.665z M66.591,78.193c2.628,0.418,7.447,0.63,14.347,0.63
				c12.974,0,29.498-0.765,33.332-0.952l2.434-37.178c-2.958,0.378-8.584,0.57-16.768,0.57c-14.003,0-31.554-0.562-35.85-0.707
				C64.605,58.554,66.227,74.728,66.591,78.193z"/>
		</g>
		<g display="inline">
			<path fill="#A953AA" d="M62.693,47.928c0,0-3.829,0-3.829,7.162s5.171,8.877,5.171,8.877L62.693,47.928z"/>
			<path d="M64.812,64.952l-0.993-0.329c-0.23-0.076-5.645-1.959-5.645-9.533c0-7.764,4.335-7.853,4.52-7.853h0.635L64.812,64.952z
				 M62.071,48.777c-0.917,0.389-2.516,1.724-2.516,6.312c0,4.641,2.308,6.816,3.689,7.701L62.071,48.777z"/>
		</g>
		<g display="inline">
			<path fill="#A953AA" d="M117.697,48.926c0,0,4.956,0,4.956,6.271s-6.114,7.771-6.114,7.771L117.697,48.926z"/>
			<path d="M115.771,63.869l1.289-15.635h0.637c0.057,0,5.646,0.08,5.646,6.963c0,6.736-6.574,8.426-6.641,8.443L115.771,63.869z
				 M118.326,49.695l-1.012,12.275c1.597-0.675,4.648-2.52,4.648-6.773C121.963,50.967,119.519,49.943,118.326,49.695z"/>
		</g>
		<g display="inline">
			<path fill="#FCFCFC" d="M76.013,51.707c0,0-3.742,1.037-3.281,5.928c0.46,4.893,4.893,4.836,4.893,4.836s5.468,0,5.468-4.949
				C83.093,52.57,77.165,51.592,76.013,51.707z"/>
			<path d="M77.618,63.393c-0.215,0-5.275-0.064-5.803-5.671c-0.421-4.478,2.401-6.472,3.953-6.901l0.154-0.029
				c0.083-0.008,0.182-0.014,0.296-0.014c2.442,0,7.796,1.698,7.796,6.744c0,4.644-4.179,5.871-6.389,5.871H77.618z M76.184,52.62
				c-0.47,0.169-2.884,1.22-2.535,4.929c0.366,3.889,3.602,4.002,3.969,4.002l0,0l0,0c0.499-0.004,4.554-0.154,4.554-4.029
				c0-4.537-5.895-4.902-5.954-4.902C76.206,52.619,76.195,52.619,76.184,52.62z"/>
		</g>
		<path display="inline" d="M76.646,55.449c0,0-1.266,0.748-0.576,2.301c0.691,1.555,3.569,0.535,3.569,0.535
			s0.806-2.836-1.093-2.836C76.646,55.449,76.646,55.449,76.646,55.449z"/>
		<g display="inline">
			<path fill="#FCFCFC" d="M100.879,51.709c0,0-4.086,0.93-4.086,5.523c0,4.596,4.489,5.361,5.697,5.361
				c1.209,0,5.584-0.875,5.124-3.609c-0.461-2.734-2.612-6.379-5.124-7.275C101.653,51.41,100.879,51.709,100.879,51.709z"/>
			<path d="M102.49,63.516c-1.717,0-6.618-1.154-6.618-6.283c0-4.17,3.074-6.004,4.749-6.409c0.291-0.098,1.365-0.272,2.178,0.018
				c2.877,1.028,5.211,4.948,5.724,7.991c0.157,0.934-0.088,1.813-0.708,2.546C106.463,62.977,103.592,63.516,102.49,63.516z
				 M101.701,52.497c-0.287,0-0.5,0.074-0.502,0.075l-0.116,0.034c-0.133,0.032-3.369,0.851-3.369,4.626
				c0,4.32,4.729,4.441,4.776,4.441c0.758,0,3.036-0.442,3.918-1.485c0.271-0.319,0.365-0.653,0.298-1.051
				c-0.419-2.489-2.382-5.796-4.526-6.562C102.034,52.523,101.872,52.497,101.701,52.497z"/>
		</g>
		<path display="inline" d="M101.973,55.893c0,0-1.783,0.029-1.957,1.998c-0.173,1.969,3.568,0.766,3.568,0.766s1.468-0.957,0-2.354
			C102.52,55.291,101.973,55.893,101.973,55.893z"/>
		<path display="inline" d="M81.568,68.859c0,0,0.978-0.432,2.302,0.721c1.324,1.15,5.842,0.834,6.706,0.834
			c0.864,0,3.771,0.26,5.469-0.518c1.697-0.777,2.1-0.951,3.194-0.951c1.094,0-1.295,2.504-1.295,2.504s-0.577,0.922-7.225,0.922
			c-6.648,0-6.85-0.26-8.404-1.18C80.762,70.27,81.568,68.859,81.568,68.859z"/>
		<g display="inline">
			<polygon fill="#7A89D4" points="77.112,79.447 77.858,86.186 98.754,86.186 98.754,79.168 			"/>
			<path d="M99.675,87.107H77.033l-0.948-8.567l23.589-0.305V87.107z M78.683,85.266h19.15v-5.164l-19.694,0.254L78.683,85.266z"/>
		</g>
	</g>
	<g display="none">
		<g display="inline">
			<path fill="#5DD3E8" d="M58.931,86.186c3.99,46.555,5.171,45.859,5.171,63.814h50.923c0,0,2.304-0.461,2.609-3.988
				c0.308-3.533-1.417-37.762,0.118-57.562c0,0,0.462-2.264-2.455-2.264c-2.916,0-37.339,1.957-53.454-0.652
				C61.844,85.533,60.621,84.996,58.931,86.186z"/>
			<path d="M115.117,150.921H63.182V150c0-10.688-0.406-14.597-1.61-26.197c-0.824-7.939-1.953-18.812-3.558-37.538l-0.045-0.526
				l0.433-0.305c1.104-0.779,2.076-0.942,2.697-0.942c0.455,0,0.795,0.087,0.978,0.147c5.513,0.883,13.824,1.331,24.707,1.331
				c10.053,0,19.732-0.38,24.932-0.583c1.87-0.073,3.104-0.121,3.584-0.121c1.269,0,2.212,0.367,2.804,1.093
				c0.712,0.87,0.613,1.909,0.566,2.205c-1.057,13.688-0.552,34.432-0.25,46.831c0.141,5.759,0.232,9.563,0.135,10.697
				c-0.361,4.167-3.225,4.787-3.347,4.812L115.117,150.921z M65.022,149.079h49.876c0.322-0.111,1.607-0.705,1.818-3.146
				c0.09-1.032-0.012-5.207-0.141-10.493c-0.303-12.447-0.811-33.28,0.259-47.061l0.016-0.113l0,0c-0.001,0,0.07-0.451-0.183-0.751
				c-0.283-0.337-0.902-0.407-1.37-0.407c-0.442,0-1.729,0.05-3.512,0.119c-5.213,0.205-14.915,0.585-25.004,0.585
				c-11.036,0-19.476-0.46-25.085-1.368l-0.222-0.066c0.006,0.008-0.122-0.043-0.377-0.043c-0.279,0-0.691,0.064-1.201,0.336
				c1.578,18.364,2.691,29.09,3.507,36.942C64.548,134.639,64.997,138.965,65.022,149.079z"/>
		</g>
		<linearGradient id="SVGID_2_" gradientUnits="userSpaceOnUse" x1="72.1548" y1="105.8926" x2="107.0283" y2="105.8926">
			<stop  offset="0" style="stop-color:#5CD1E6"/>
			<stop  offset="1" style="stop-color:#B37CFF"/>
		</linearGradient>
		<polygon display="inline" fill="url(#SVGID_2_)" points="72.455,99.5 72.155,113.365 107.028,113.365 106.488,98.42 		"/>
		<path display="inline" d="M70.851,98.426c0,0,0.423,10.133,0.73,15.35h35.765v-16.27L70.851,98.426z M104.902,100.186
			c0.465,0.275,0.342,0.875,0.477,1.361c0.235-0.021,0.489-0.076,0.732-0.045c0.063,1.143-0.239,1.424-1.325,1.318
			c-0.443-0.043-1.836,0.207-2.175,0.004c-0.465-0.279-0.102-1.844-0.235-2.365l-0.403-0.402
			C102.753,100.057,104.222,99.781,104.902,100.186z M93.482,107.814c-0.184-0.004-0.279-0.146-0.443-0.162
			c-0.223-0.021-0.643,0.205-0.844,0.051c-0.246-0.188-0.211-1.156-0.227-1.408c-0.033-0.545,0.113-1.266-0.033-1.814
			c-0.049,0.002-0.1,0.008-0.151,0.008l0.116-0.172c0.02,0.051,0.021,0.111,0.035,0.164c0.952-0.023,1.885-0.238,2.836-0.148
			C94.824,105.5,95.054,107.861,93.482,107.814z M85.285,107.023c-0.153,0.623-0.197,0.51-0.692,0.574
			c-0.309,0.039-0.738,0.043-1.042-0.014c-0.611-0.109-1.142-0.572-1.033-1.252c0.146-0.922,1.571-1.27,2.072-2.016l0.173,0.172
			c-0.069,0-0.139,0-0.208,0c0.292,0,0.587-0.004,0.878,0.01C85.572,105.148,85.438,106.396,85.285,107.023z M72.973,100.645
			c0.317-0.639,0.866-0.482,1.429-0.645l-0.345,0.115c0.782,0,1.573-0.027,2.351,0.008c0.044,0.762,0.315,2.498-0.118,3.135
			c-0.301,0.443-1.223,0.281-1.722,0.186c-0.455-0.088-1.267-0.332-1.55-0.727c-0.22-0.305-0.17-0.58-0.17-0.977
			C72.847,101.367,72.807,100.979,72.973,100.645z M73.596,112.721l-0.403,0.115c0.002-0.803-0.124-1.59-0.161-2.373
			c-0.009-0.176-0.082-0.307-0.062-0.496c1.288-0.076,2.741-0.143,4.019,0.01c0.031,0.984,0.018,1.98,0.001,2.967
			C75.894,113.082,74.709,112.668,73.596,112.721z M76.699,108.455c-1.155,0.041-2.421,0.223-3.563,0.111
			c0.195-1.146,0.288-2.256,0.288-3.443l0.173-0.115c0.131,0.297,3.089-0.076,3.456-0.049
			C77.068,106.133,76.684,107.293,76.699,108.455z M78.258,102.66c-0.028-0.795,0.117-1.836-0.102-2.594
			c-0.06-0.002-0.131-0.01-0.186-0.01L78.143,100c0.007,0.02,0.007,0.047,0.013,0.066c1.355,0.041,3.919,0.854,2.503,2.408
			c-0.441,0.486-1.449,1.797-2.234,1.039C78.205,103.301,78.267,102.936,78.258,102.66z M81.127,113.135c0-0.006,0-0.012,0-0.018
			l-2.293-0.109c0-1.217-0.067-2.465,0.009-3.678c0.732,0.148,1.525,0.887,2.284,0.805c0.061,0.975,0.042,2.006,0,2.982l0.124,0.006
			C81.196,113.188,81.155,113.191,81.127,113.135z M79.524,107.656c-1.553-0.207-1.32-2.852,0.23-2.764l0.403-0.115
			c0.756,0.227,1.205,1.188,1.094,1.945C81.116,107.656,80.38,107.768,79.524,107.656z M81.832,100.227
			c-0.019,0-0.044,0.004-0.062,0.004l0.057-0.059C81.832,100.189,81.828,100.211,81.832,100.227
			c1.014,0.004,2.991-0.738,3.278,0.592c0.132,0.611,0.181,2.207-0.361,2.656c-0.497,0.41-2.396,0.545-2.753-0.076
			C81.532,102.598,82.085,101.123,81.832,100.227z M85.459,112.738c-0.492-0.047-0.896,0.188-1.329,0.086
			c-0.635-0.148-1.201-0.541-1.861-0.604c0.096-0.893,0.428-1.822,0.362-2.725l-0.402,0.174c0.532-0.305,0.894-1.135,1.531-1.213
			c0.166-0.018,0.308,0.104,0.481,0.117c0.477,0.043,0.956-0.076,1.423-0.053C86.058,109.525,86.088,111.939,85.459,112.738z
			 M86.892,99.941h-0.173c0.554,0,1.814-0.219,2.191,0.135c0.325,0.305,0.51,1.6,0.574,2.049c0.093,0.646,0.009,0.639-0.471,0.752
			c-0.44,0.105-1.13-0.008-1.562-0.068c-0.647-0.092-0.614-0.178-0.617-0.775C86.831,101.338,86.787,100.627,86.892,99.941z
			 M86.935,104.773c-0.015,0-0.029,0.004-0.043,0.004v-0.289C86.916,104.58,86.918,104.68,86.935,104.773
			c0.477-0.008,1.041-0.137,1.497-0.055c0.505,0.094,1.86,0.92,1.917,1.439c0.071,0.648-0.938,1.508-1.447,1.611
			c-0.604,0.123-1.33,0.086-1.946,0.049C86.916,106.848,87.106,105.734,86.935,104.773z M90.863,110.408
			c0.002,1.287-0.742,2.32-1.78,3.154c-0.05-0.209-0.109-0.564-0.25-0.727c-0.269-0.309-0.9-0.162-1.133-0.402
			c-0.308-0.318-0.093-1.121-0.114-1.568c-0.027-0.557-0.167-0.949,0.179-1.426c0.425-0.588,1.241-0.971,1.948-0.922l-0.403-0.402
			c0.363,0.436,1.202,0.266,1.5,0.705C91.026,109.139,90.862,110.053,90.863,110.408z M91.151,99.943
			c-0.038,0-0.076-0.002-0.115-0.002h0.115V99.943c0.413-0.002,0.827-0.006,1.239,0.012c0.465,0.021,1.806-0.055,2.121,0.303
			c0.204,0.229,0.046,1.295,0.036,1.561c-0.021,0.578,0.048,0.936-0.473,1.059c-0.443,0.105-1.098-0.156-1.561-0.172
			c-0.339-0.012-0.96,0.131-1.24-0.115C90.807,102.18,91.002,100.496,91.151,99.943z M95.01,112.439
			c-0.56-0.176-1.294-0.129-1.895-0.125c-0.459-0.803-0.734-1.801-1.389-2.52c0.406-0.35,1.167-0.926,1.381-1.332
			c-0.073,0.018-0.143,0.035-0.229,0.055l0.23-0.057c0,0.002-0.001,0.002-0.001,0.002c0.337-0.082,0.547-0.16,0.808-0.525
			c0.713,0.533,1.274,0.783,1.381,1.613C95.394,110.318,95.408,111.758,95.01,112.439z M95.933,99.896
			c-0.056-0.002-0.11-0.012-0.165-0.014c0.054,0,0.107,0.002,0.161,0.002L95.933,99.896c1.456,0.068,2.924,0.469,4.364,0.457
			c0.027,0.658,0.18,1.676-0.062,2.291c-0.847,0.023-1.733,0.221-2.556,0.227c-0.681,0.002-1.027-0.654-1.746-0.588
			c0.036-0.719,0.054-1.441,0.054-2.168L95.933,99.896z M96.907,104.604l-0.288-0.344c1.162,0.283,2.274-0.035,3.388,0.061
			c-0.001,0.973,0.214,1.934,0.175,2.928c-1.057,0.027-2.109-0.143-3.14-0.117C96.905,106.314,96.908,105.443,96.907,104.604z
			 M100.532,111.977c-0.928,0.035-2.225,0.029-3.103-0.303c0.027-1.07-0.37-2.123-0.35-3.213l1.094,0.287
			c-0.05,0.018-0.098,0.033-0.147,0.049c0.886,0.031,1.861,0.025,2.741,0.139C100.806,109.943,100.561,110.963,100.532,111.977z
			 M104.928,112.133c-0.547-0.037-1.301-0.305-1.702-0.717c-0.608-0.619-0.298-1.307-0.249-1.99
			c-0.088,0.008-0.18,0.018-0.256,0.014l0.229-0.518c0.04,0.166,0.038,0.334,0.026,0.504c0.943-0.078,2.504-0.678,2.796,0.311
			C106.011,110.543,105.97,112.203,104.928,112.133z M105.833,106.965c-0.382,0.154-0.991-0.043-1.407,0.021
			c-0.763,0.119-1.433,0.361-2.22,0.316c-0.021-0.916,0.436-2.098,0.246-2.949c-0.256,0.01-0.514,0.021-0.767,0.021l0.748-0.174
			c0.015,0.047,0.006,0.105,0.019,0.152c1.295-0.045,2.596-0.17,3.885-0.088C106.386,105.004,106.574,106.668,105.833,106.965z"/>
	</g>
	<g display="none">
		<g display="inline">
			<path fill="#7A89D4" d="M115.218,150.707c-0.215,0.389,0.298,4.986-2.349,5.027c-2.647,0.039-17.202,0.264-17.202,0.264
				s-1.765,0.027-1.784-1.277c-0.021-1.305-0.066-4.299-0.066-4.299l21.398,0.057"/>
			<path d="M95.658,156.899c-0.123,0-0.641-0.012-1.176-0.2c-0.939-0.332-1.487-1.048-1.501-1.965l-0.081-5.217l22.316,0.06
				l-0.002,1.128l0.792,0.438c0.055-0.1,0.068-0.175,0.069-0.178c-0.02,0.107-0.023,0.293-0.034,0.526
				c-0.069,1.525-0.231,5.098-3.159,5.144c-2.648,0.039-17.202,0.264-17.202,0.264C95.676,156.899,95.669,156.899,95.658,156.899z
				 M94.732,151.326l0.052,3.38c0.005,0.369,0.866,0.391,0.874,0.391c-0.005,0,14.551-0.225,17.197-0.264
				c1.082-0.017,1.305-1.655,1.386-3.423c0.001-0.011,0.001-0.021,0.001-0.033L94.732,151.326z"/>
		</g>
		<g display="inline">
			<path fill="#5DD3E8" d="M67.13,155.986v25.631c0,0,0.46,1.691-1.381,1.691h15.138c0,0-0.766-1.535-0.613-2.611
				c0.152-1.072,1.975-21.879,2.818-24.676L67.13,155.986z"/>
			<path d="M80.886,184.229H65.749v-1.842c0.304,0,0.437-0.066,0.464-0.102c0.056-0.07,0.06-0.298,0.025-0.438l-0.029-0.23v-26.554
				l18.122,0.04l-0.357,1.184c-0.625,2.074-1.906,15.446-2.452,21.156c-0.202,2.106-0.3,3.13-0.336,3.384
				c-0.081,0.571,0.279,1.574,0.526,2.071l0.659,1.33L80.886,184.229z M68.08,182.388h11.472c-0.16-0.563-0.275-1.225-0.19-1.82
				c0.031-0.223,0.162-1.58,0.326-3.3c0.83-8.664,1.667-16.973,2.263-20.328l-13.9-0.03v24.609
				C68.085,181.699,68.126,182.021,68.08,182.388z"/>
		</g>
		<g display="inline">
			<path fill="#7A89D4" d="M64.132,184c0,0-0.066,9.055,0,9.135c0.067,0.074,1.742,1.15,6.97,1.074
				c5.228-0.078,9.853-0.307,10.523-0.615c0.67-0.307,1.742-1.459,1.474-5.143c-0.268-3.682-0.335-5.143-0.335-5.143H64.4"/>
			<path d="M70.581,195.073c-4.791,0-6.737-0.973-7.088-1.362c-0.29-0.349-0.29-0.349-0.221-9.717l1.128,0.008v-1.554h19.184
				l0.039,0.82c0,0.015,0.071,1.498,0.334,5.12c0.312,4.281-1.103,5.589-1.974,5.987c-1.037,0.478-7.255,0.64-10.869,0.693
				C70.934,195.072,70.755,195.073,70.581,195.073z M64.972,192.604c0.66,0.27,2.436,0.783,6.118,0.744
				c6.651-0.1,9.74-0.38,10.193-0.544c0.112-0.052,1.222-0.668,0.958-4.291c-0.157-2.165-0.246-3.557-0.292-4.345H64.992
				C64.972,186.989,64.952,191.228,64.972,192.604z"/>
		</g>
		<g display="inline">
			<path fill="#5DD3E8" d="M66.7,212.014c1.075-1.076,1.695-18.209,1.695-18.209c1.155-0.174,12.324-0.824,12.324-0.824l-0.23,9.67
				c0.044,6.166-0.287,9.287-0.287,9.287L66.7,212.014z"/>
			<path d="M64.466,212.947l1.53-1.532c0.569-1.187,1.197-9.853,1.479-17.644l0.028-0.764l0.755-0.114
				c1.163-0.175,11.26-0.766,12.408-0.832l0.998-0.059l-0.254,10.669c0.044,6.119-0.278,9.233-0.292,9.362l-0.087,0.819
				L64.466,212.947z M69.286,194.641c-0.237,6.224-0.649,13.286-1.343,16.445l11.412-0.064c0.093-1.292,0.244-4.103,0.214-8.364
				l0.207-8.698C76.736,194.139,71.349,194.469,69.286,194.641z"/>
		</g>
		<g display="inline">
			<path fill="#A953AA" d="M63.523,212.727l-1.409,9.648h25.072l-2.042-8.52c0,0-1.23-2.379-4.07-2.379
				C78.234,211.477,63.523,212.727,63.523,212.727z"/>
			<path d="M88.354,223.296H61.049l1.668-11.425l0.728-0.062c0.603-0.051,14.783-1.253,17.629-1.253
				c3.362,0,4.828,2.759,4.888,2.877l0.078,0.208L88.354,223.296z M63.18,221.454h22.839l-1.739-7.257
				c-0.223-0.363-1.227-1.8-3.205-1.8c-2.41,0-13.747,0.935-16.746,1.186L63.18,221.454z"/>
		</g>
		<g display="inline">
			<path fill="#7A89D4" d="M65.842,155.955c0,0,17.32,0.414,19.27-0.814c1.95-1.227,1.227-4.373,1.227-4.373l-20.684-0.385
				L65.842,155.955z"/>
			<path d="M72.133,156.915C72.132,156.915,72.133,156.915,72.133,156.915c-3.454,0-6.284-0.066-6.312-0.067l-0.843-0.02
				l-0.248-7.355l22.323,0.415l0.156,0.68c0.035,0.154,0.837,3.782-1.622,5.329C85.146,156.175,83.969,156.915,72.133,156.915z
				 M66.706,155.079c1.087,0.02,3.116,0.05,5.426,0.05c10.731,0,12.299-0.62,12.504-0.744c0.917-0.577,0.979-1.918,0.919-2.738
				l-18.977-0.354L66.706,155.079z"/>
		</g>
		<g display="inline">
			<path fill="#5DD3E8" d="M97.165,155.695l1.698,26h12.933c0,0-0.464-19.68,0-26C111.796,155.695,107.328,155.805,97.165,155.695z"
				/>
			<path d="M112.738,182.616H98l-1.818-27.853l0.993,0.011c10.058,0.108,14.568,0.001,14.599,0l1.016-0.024l-0.074,1.013
				c-0.455,6.204-0.003,25.715,0.002,25.911L112.738,182.616z M99.727,180.774h11.127c-0.082-3.816-0.354-17.901-0.037-24.141
				c-1.759,0.024-5.844,0.061-12.668-0.008L99.727,180.774z"/>
		</g>
		<g display="inline">
			<path fill="#A953AA" d="M95.234,210.787l-1.32,11.588h19.488c0,0,2.378,0.074,2.839-3.684c0.461-3.76-0.915-7.828-3.064-7.904
				C111.028,210.711,95.234,210.787,95.234,210.787z"/>
			<path d="M113.412,223.296L113.412,223.296H92.883l1.529-13.426l0.818-0.004c0,0,7.021-0.034,12.34-0.034
				c3.098,0,4.994,0.012,5.639,0.035c0.822,0.028,1.594,0.438,2.23,1.186c1.395,1.633,2.084,4.748,1.716,7.751
				C116.721,222.35,114.598,223.296,113.412,223.296z M94.945,221.454h18.466c0.168-0.004,1.578-0.119,1.916-2.875
				c0.3-2.443-0.242-5.105-1.288-6.33c-0.298-0.349-0.6-0.531-0.895-0.542c-0.623-0.021-2.498-0.033-5.574-0.033
				c-4.219,0-9.512,0.021-11.514,0.03L94.945,221.454z"/>
		</g>
		<g display="inline">
			<path fill="#5DD3E8" d="M97.346,192.443c0,0,1.521,7.373,0.79,18.65c-0.112,1.729,12.202,0,12.202,0s1.075-2.148,0.69-10.438
				c-0.384-8.287,0.084-9.287,0.084-9.287L97.346,192.443z"/>
			<path d="M101.25,212.783L101.25,212.783c-2.09,0-3.157-0.229-3.684-0.791c-0.248-0.265-0.373-0.605-0.35-0.958
				c0.714-11.025-0.758-18.332-0.773-18.405l-0.211-1.022l16.384-1.278l-0.67,1.432c0.001-0.001,0.001-0.001,0.001-0.001
				c0.01,0-0.344,1.42,0.001,8.854c0.385,8.29-0.665,10.65-0.786,10.893l-0.217,0.433l-0.479,0.067
				C110.24,212.037,104.888,212.783,101.25,212.783z M99.079,210.768c0.283,0.075,0.899,0.174,2.171,0.174
				c2.839,0,6.916-0.493,8.396-0.685c0.248-0.95,0.736-3.646,0.462-9.558c-0.177-3.801-0.198-6.68-0.071-8.322l-11.607,0.905
				C98.812,195.658,99.613,201.981,99.079,210.768z"/>
		</g>
		<path display="inline" fill="none" stroke="#000000" stroke-width="1.8419" stroke-miterlimit="10" d="M111.796,182.16"/>
		<g display="inline">
			<path fill="#7A89D4" d="M114.247,189.184v-5.904c0,0,0.087-1.291-1.72-1.291c-1.805,0-14.92,0-14.92,0s-2.112-0.18-2.112,0.781
				s0,2.613,0,2.613c0,3.215-1.165,7.598,2.908,7.598c4.071,0,15.353,0,15.353,0s0.283,0.311,0.496-3.873"/>
			<path d="M113.756,193.866H98.403c-1.238,0-2.203-0.359-2.868-1.066c-1.264-1.344-1.13-3.533-1-5.65
				c0.037-0.604,0.074-1.204,0.074-1.767v-2.613c0-0.412,0.17-0.794,0.477-1.076c0.746-0.686,2.175-0.625,2.597-0.587l14.845-0.004
				c0.893,0,1.584,0.255,2.053,0.756c0.577,0.618,0.56,1.342,0.551,1.48l0.006,5.813c-0.213,4.188-0.479,4.457-1.061,4.665
				l-0.32-0.079V193.866z M96.381,182.957v2.426c0,0.597-0.039,1.233-0.078,1.875c-0.107,1.742-0.217,3.543,0.521,4.328
				c0.322,0.343,0.839,0.509,1.579,0.509h14.714c0.068-0.447,0.16-1.306,0.244-2.916v-5.899c-0.007-0.356-0.525-0.405-0.834-0.405
				h-14.92C97.129,182.834,96.621,182.878,96.381,182.957z"/>
		</g>
	</g>
	<g display="none">
		<g display="inline">
			<path fill="#5DD3E8" d="M54.437,148.027l-16.864-1.385c0,0-1.476-0.316-1.792,2.125c-0.316,2.436-2.004,6.109,3.055,6.41
				c5.057,0.301,12.505,1.029,12.505,1.029s3.315,0.422,3.37-3.057S56.733,148.219,54.437,148.027z"/>
			<path d="M51.67,157.145L51.67,157.145c-0.275,0-0.446-0.023-0.446-0.023c-0.048-0.005-7.462-0.728-12.443-1.024
				c-1.795-0.106-3.02-0.614-3.743-1.554c-1.058-1.374-0.681-3.243-0.377-4.745c0.081-0.4,0.16-0.789,0.207-1.148
				c0.354-2.729,2.034-2.941,2.541-2.941c0.116,0,0.211,0.01,0.277,0.02l16.827,1.382c0.532,0.044,1.285,0.173,1.696,0.777
				c0.457,0.672,0.228,1.434-0.038,2.315c-0.231,0.767-0.519,1.721-0.539,2.963C55.585,156.099,53.555,157.145,51.67,157.145z
				 M37.38,147.543c-0.305,0.007-0.579,0.519-0.686,1.343c-0.052,0.4-0.138,0.832-0.228,1.276c-0.253,1.253-0.514,2.549,0.031,3.258
				c0.373,0.484,1.178,0.767,2.393,0.839c5.016,0.298,12.465,1.024,12.54,1.031c0.04,0.005,0.12,0.012,0.24,0.012
				c1.384,0,2.097-0.729,2.119-2.166c0.023-1.498,0.366-2.636,0.617-3.466c0.07-0.233,0.152-0.505,0.194-0.695
				c-0.061-0.011-0.14-0.021-0.24-0.029L37.38,147.543z"/>
		</g>
		<g display="inline">
			<path fill="#5DD3E8" d="M125.482,93.99c0,0,7.974,0.037,8.564,1.605c0,0,5.348,48.188,5.976,50.217l-10.898,0.896
				C129.124,146.709,126.636,106.602,125.482,93.99z"/>
			<path d="M128.264,147.704l-0.059-0.938c-0.025-0.4-2.501-40.237-3.64-52.691l-0.093-1.01l1.014,0.005
				c3.928,0.019,8.75,0.415,9.422,2.202l0.055,0.223c2.138,19.271,5.484,48.502,5.939,50.048l0.32,1.085l-1.125,0.104
				L128.264,147.704z M126.49,94.929c1.073,12.302,3.123,44.837,3.494,50.785l8.951-0.736c-1.106-7.079-5.189-43.741-5.783-49.087
				C132.633,95.459,129.681,95.021,126.49,94.929z"/>
		</g>
		<g display="inline">
			<path fill="#5DD3E8" d="M52.651,149.162c0,0-0.103-1.152-2.699-1.152h-9.71l10.567-0.574c0,0,2.043-33.449,1.842-36.049
				c-0.202-2.598-2.674-15.611-2.674-15.611s-0.521-1.365-4.217-1.785c0,0-4.108,0.215-4.108,2.082
				c0,36.516-0.325,34.854-1.434,51.363"/>
			<path d="M51.76,149.371c-0.002-0.004-0.272-0.44-1.808-0.44h-9.71l-0.041-1.496l-0.902-0.061
				c0.161-2.395,0.305-4.407,0.435-6.209c0.766-10.68,0.997-13.902,0.997-45.093c0-2.609,4.149-2.958,4.981-3.002l0.077-0.004
				l0.076,0.009c4.047,0.46,4.853,2.057,4.973,2.371l0.044,0.157c0.102,0.533,2.484,13.094,2.687,15.712
				c0.199,2.562-1.651,33.074-1.83,35.997c1.656,0.486,1.815,1.609,1.829,1.768l-1.835,0.164
				C51.742,149.336,51.759,149.37,51.76,149.371z M45.734,94.914c-1.45,0.094-3.161,0.621-3.161,1.158
				c0,31.256-0.232,34.494-1.002,45.225c-0.121,1.683-0.254,3.55-0.403,5.74l8.772-0.477c0.714-11.753,1.945-33.144,1.793-35.103
				c-0.185-2.376-2.368-13.963-2.634-15.371C48.98,95.956,48.253,95.214,45.734,94.914z"/>
		</g>
		<g display="inline">
			<path fill="#7B8AD6" d="M58.731,89.186l-9.483,2.525c0,0-0.46,4.777,1.381,15.916c0,0-0.46,4.363,2.188,4.363
				s7.571-0.738,7.571-0.738S59.234,97.252,58.731,89.186z"/>
			<path d="M52.816,112.911c-0.824,0-1.54-0.311-2.069-0.899c-1.198-1.331-1.097-3.717-1.046-4.351
				c-1.818-11.047-1.39-15.839-1.37-16.038l0.061-0.638l11.188-2.979l0.07,1.123c0.497,7.964,1.644,21.907,1.656,22.048l0.071,0.858
				l-0.852,0.128C60.32,112.193,55.502,112.911,52.816,112.911z M50.133,92.429c-0.05,1.619-0.023,6.415,1.405,15.048l0.02,0.121
				l-0.013,0.124c-0.086,0.843-0.007,2.418,0.572,3.06c0.18,0.199,0.396,0.288,0.699,0.288c1.899,0,5.071-0.4,6.583-0.607
				c-0.245-3.014-1.067-13.223-1.516-20.098L50.133,92.429z"/>
		</g>
		<path display="inline" fill="none" stroke="#EC008C" stroke-width="1.8419" stroke-miterlimit="10" d="M49.196,146.967"/>
		<g display="inline">
			<path fill="#5DD3E8" d="M128.994,147.371c0,0,1.1,3.266-1.803,4.021c-2.903,0.756-1.3,1.771-0.976,3.451
				c0.324,1.678,2.456,2.396,14.889-0.004l3.473-0.547l-1.498-7.76L128.994,147.371z"/>
			<path d="M129.701,157.304c-1.838,0-3.998-0.26-4.39-2.285c-0.065-0.342-0.214-0.677-0.355-1.001
				c-0.281-0.64-0.6-1.364-0.229-2.132c0.396-0.814,1.4-1.168,2.231-1.385c0.538-0.14,0.898-0.39,1.101-0.766
				c0.382-0.706,0.167-1.758,0.062-2.07l-0.385-1.142l16.094-0.957l1.832,9.488l-4.414,0.695
				C135.768,156.808,132.09,157.304,129.701,157.304z M130.098,148.228c0.064,0.687,0.02,1.575-0.418,2.384
				c-0.445,0.826-1.227,1.404-2.256,1.673c-0.88,0.229-1.045,0.42-1.052,0.428c0.03,0.021,0.175,0.348,0.271,0.564
				c0.166,0.378,0.373,0.849,0.478,1.393c0.046,0.237,0.153,0.793,2.581,0.793c2.236,0,5.91-0.499,11.229-1.526l2.562-0.404
				l-1.164-6.031L130.098,148.228z"/>
		</g>
		<g display="inline">
			<path fill="#7B8AD6" d="M118.418,91.443c1.631-0.338,9.567-1.773,10.473,2.285l-1.856,18.461l-9.175,2.789L118.418,91.443z"/>
			<path d="M116.908,116.23l0.606-25.54l0.716-0.148c0.787-0.163,2.844-0.542,4.971-0.542c4.795,0,6.229,1.919,6.588,3.528
				l0.033,0.145l-1.934,19.22L116.908,116.23z M119.32,92.209l-0.51,21.518l7.369-2.24l1.778-17.688
				c-0.476-1.613-2.835-1.957-4.757-1.957C121.715,91.842,120.257,92.045,119.32,92.209z"/>
		</g>
	</g>
</g>
<path fill="#7B8AD6" stroke="#7B8AD6" stroke-width="1.8029" stroke-miterlimit="10" d="M-42.536,147.085l-2.87,0.171l-0.058-0.197
	c-0.455-1.546-3.802-30.776-5.94-50.046l-0.054-0.223c-0.437-1.161-2.629-1.733-5.187-1.998c-0.453-1.55-1.978-3.272-6.521-3.272
	c-1.893,0-3.729,0.3-4.664,0.48c0.042-0.647,0.083-1.297,0.131-1.917c0.046-0.296,0.146-1.334-0.566-2.206
	c-0.592-0.726-1.536-1.093-2.804-1.093c-0.479,0-1.714,0.048-3.584,0.122c-2.874,0.112-7.121,0.278-12.039,0.405v-5.485
	c8.59-0.283,15.393-0.629,15.507-0.635l0.818-0.042l1.054-16.095c1.362-0.455,6.29-2.5,6.29-8.335c0-5.875-4.062-6.791-5.291-6.934
	l0.642-9.805l-1.183,0.242c-2.049,0.419-6.841,0.657-14.264,0.71c-0.381-2.334-2.134-8.475-9.979-9.081l-0.586-14.182
	c1.708-0.837,4.128-2.976,4.128-6.748c0-4.493-3.943-5.68-6.029-5.68l-0.182,0.018c-2.141,0.432-6,2.488-5.298,7.108
	c0.019,0.259,0.294,2.527,4.264,5.046L-97.507,32.1c-7.104,1.378-9.023,7.233-9.366,8.566c-9.083-0.208-16.202-0.461-16.323-0.466
	l-0.98-0.035l0.026,0.98c0.069,2.585,0.161,5.138,0.269,7.625c-0.885,0.099-4.312,0.927-4.312,7.838
	c0,6.663,4.187,8.919,5.352,9.418c0.659,8.676,1.296,14.467,1.308,14.57l0.074,0.667l0.657,0.134c2,0.408,5.612,0.658,10.752,0.748
	l0.575,5.196c-6.151-0.197-11.117-0.592-14.816-1.185c-0.183-0.061-0.522-0.147-0.978-0.147c-0.621,0-1.592,0.164-2.696,0.941
	l-0.433,0.305l0.045,0.527c0.062,0.723,0.122,1.412,0.183,2.112l-9.804,2.61l-0.061,0.637c-0.007,0.069-0.062,0.708-0.056,1.955
	c-0.638-0.211-1.427-0.391-2.411-0.503l-0.076-0.009l-0.077,0.004c-0.832,0.044-4.981,0.393-4.981,3.002
	c0,31.191-0.231,34.414-0.997,45.094c-0.101,1.409-0.212,2.954-0.332,4.702l-1.717-0.141c-0.065-0.01-0.161-0.02-0.277-0.02
	c-0.507,0-2.187,0.212-2.541,2.941c-0.047,0.36-0.126,0.749-0.207,1.149c-0.303,1.502-0.68,3.371,0.377,4.744
	c0.723,0.939,1.947,1.447,3.743,1.554c4.981,0.297,12.396,1.021,12.443,1.025c0,0,0.171,0.023,0.446,0.023
	c1.885,0,3.915-1.046,3.961-3.98c0.02-1.242,0.307-2.196,0.539-2.963c0.266-0.882,0.495-1.644,0.038-2.315
	c-0.411-0.604-1.164-0.733-1.696-0.777l-2.747-0.226c0.253-4.176,1.652-27.406,1.804-33.989c2.512-0.096,6.088-0.604,6.82-0.71
	c0.453,4.589,0.844,8.359,1.182,11.619c1.205,11.602,1.61,15.51,1.61,26.198v0.921h1.597l0.199,5.906l0.843,0.02
	c0.006,0,0.147,0.004,0.389,0.009v24.762l0.029,0.23c0.034,0.141,0.03,0.367-0.025,0.438c-0.027,0.035-0.16,0.102-0.464,0.102v0.061
	h-1.348v0.86l-0.268,0.692l0,0l-0.86-0.006c-0.069,9.368-0.069,9.368,0.221,9.717c0.26,0.289,1.404,0.899,3.938,1.194
	c-0.299,7.477-0.893,15.381-1.435,16.51l-0.196,0.196c-1.317,0.108-2.213,0.185-2.354,0.196l-0.728,0.062l-1.668,11.425h27.305
	l-2.314-9.654l-0.078-0.208c-0.06-0.116-1.483-2.782-4.73-2.869c0.093-1.493,0.205-4.12,0.178-7.893l0.195-8.183
	c0.157-0.035,0.292-0.072,0.379-0.112c0.871-0.399,2.285-1.709,1.973-5.987c-0.263-3.623-0.333-5.106-0.334-5.121l-0.039-0.82
	h-2.069c-0.193-0.498-0.393-1.181-0.331-1.62c0.036-0.254,0.135-1.276,0.336-3.381c0.539-5.624,1.788-18.674,2.423-21.05
	c1.147-0.189,1.46-0.385,1.643-0.5c2.044-1.285,1.835-4.004,1.686-4.976h5.649l0.059,3.812c0.014,0.917,0.561,1.633,1.501,1.965
	c0.535,0.188,1.052,0.2,1.176,0.2c0.01,0,0.018,0,0.022,0l0.639-0.01l1.582,24.218h-0.219c-0.42-0.038-1.85-0.1-2.597,0.587
	c-0.307,0.281-0.476,0.663-0.476,1.075v2.614c0,0.562-0.038,1.162-0.075,1.767c-0.13,2.117-0.264,4.306,0.999,5.649
	c0.294,0.312,0.656,0.545,1.065,0.721c0.345,2.154,1.109,8.122,0.681,16.337c-1.25,0.005-2.05,0.009-2.05,0.009l-0.818,0.004
	l-1.53,13.426h20.53c1.186,0,3.308-0.946,3.743-4.492c0.368-3.003-0.321-6.118-1.715-7.751c-0.638-0.747-1.409-1.157-2.23-1.186
	c-0.284-0.011-0.824-0.019-1.589-0.024c0.285-1.551,0.553-4.364,0.328-9.229c-0.153-3.305-0.168-5.416-0.139-6.747h1.946v-0.128
	l0.321,0.079c0.581-0.208,0.847-0.477,1.06-4.665l-0.006-5.812c0.009-0.139,0.027-0.862-0.55-1.48
	c-0.437-0.466-1.072-0.709-1.876-0.742c-0.067-3.091-0.37-18.202-0.043-24.479l0.222-0.003c2.927-0.046,3.089-3.617,3.159-5.143
	c0.011-0.233,0.015-0.419,0.034-0.526c0,0.004-0.015,0.08-0.069,0.178l-0.559-0.31c0.716-0.237,2.8-1.224,3.104-4.743
	c0.099-1.134,0.006-4.938-0.134-10.697c-0.13-5.359-0.298-12.279-0.362-19.514l7.973-2.422c0.999,14.465,2.019,30.787,2.159,33.041
	l-0.438,0.026l0.371,1.135c0.112,0.342,0.318,1.383-0.063,2.081c-0.204,0.372-0.562,0.621-1.097,0.76
	c-0.832,0.217-1.837,0.569-2.232,1.385c-0.371,0.767-0.053,1.491,0.229,2.131c0.142,0.324,0.29,0.659,0.355,1.001
	c0.392,2.025,2.551,2.285,4.389,2.285c2.389,0,6.067-0.496,11.547-1.554l4.415-0.694L-42.536,147.085z"/>
</svg>
