<?xml version="1.0" encoding="utf-8"?>
<!-- Generator: Adobe Illustrator 16.0.0, SVG Export Plug-In . SVG Version: 6.00 Build 0)  -->
<!DOCTYPE svg PUBLIC "-//W3C//DTD SVG 1.1//EN" "http://www.w3.org/Graphics/SVG/1.1/DTD/svg11.dtd">
<svg version="1.1" id="Layer_1" xmlns="http://www.w3.org/2000/svg" xmlns:xlink="http://www.w3.org/1999/xlink" x="0px" y="0px"
	 width="75px" height="75px" viewBox="0 0 75 75" enable-background="new 0 0 75 75" xml:space="preserve">
<g>
	<g>
		<path fill="#EA47A4" d="M15.062,46.173c0,13.421,10.88,24.302,24.302,24.302c13.421,0,24.303-10.881,24.303-24.302
			C63.959,35.952,58.03,27.469,39.343,4.14c-18.508,23.33-24.476,31.812-24.275,42.033H15.062z"/>
		<path fill="#202A8E" d="M39.364,71.924c-14.2,0-25.752-11.552-25.752-25.751l0.017-1.45c0.361-10.115,6.688-18.934,24.578-41.484
			l1.131-1.425l1.137,1.419c18.504,23.099,24.95,32.149,24.643,42.98C65.117,60.372,53.564,71.924,39.364,71.924z M16.54,47.303
			c0.592,12.077,10.604,21.722,22.824,21.722c12.601,0,22.854-10.252,22.854-22.852c0.274-9.685-5.732-18.27-22.87-39.706
			c-17.378,21.944-23.02,30.071-22.83,39.677L16.54,47.303z"/>
	</g>
	<g>
		<path fill="#DDF46E" d="M70.219,22.788C25.21,34.4,44.146,51.913,44.146,51.913S63.497,69.197,70.219,22.788z"/>
		<path fill="#202A8E" d="M52.237,56.514C52.236,56.514,52.238,56.514,52.237,56.514c-5.061,0-8.896-3.375-9.057-3.52
			c-0.259-0.237-5.871-5.527-4.097-12.565c1.988-7.881,12.341-14.29,30.771-19.045l2.11-0.544l-0.312,2.156
			C69.438,38.285,64.271,56.514,52.237,56.514z M68.449,24.759c-19.818,5.445-25.4,11.862-26.547,16.355
			c-1.367,5.359,3.185,9.694,3.232,9.737c0.006,0.005,3.172,2.761,7.103,2.761C59.722,53.612,65.447,43.39,68.449,24.759z"/>
	</g>
	<g>
		<path fill="#57DDD0" d="M4.858,11.275c65.021,14.385,38.78,40.401,38.78,40.401S16.796,77.391,4.858,11.275z"/>
		<path fill="#202A8E" d="M31.719,58.049c-16.438,0-24.457-25.295-28.288-46.516L3.045,9.389L5.171,9.86
			c26.388,5.837,41.373,14.349,44.541,25.297c2.787,9.634-4.73,17.23-5.053,17.55C44.414,52.941,38.999,58.049,31.719,58.049z
			 M6.688,13.177c6.619,34.622,17.224,41.973,25.032,41.973c6.092,0,10.872-4.476,10.918-4.521
			c0.045-0.045,6.604-6.718,4.281-14.688C44.992,29.33,36.405,20.088,6.688,13.177z"/>
	</g>
	<path fill="#473F41" d="M46.981,32.366"/>
	<g opacity="0.8">
		<path fill="#202A8E" d="M52.599,42.713c0,0,0.945-1.149,2.361-2.874c1.43-1.714,3.382-3.957,5.34-6.196
			c1.981-2.217,3.969-4.43,5.495-6.058c1.538-1.616,2.564-2.695,2.564-2.695s-0.945,1.149-2.362,2.874
			c-1.428,1.714-3.38,3.958-5.339,6.196c-1.982,2.217-3.971,4.428-5.497,6.056C53.624,41.635,52.599,42.713,52.599,42.713z"/>
		<g>
			<g>
				<path fill="none" d="M49.352,43.085"/>
			</g>
		</g>
		<path fill="#202A8E" d="M52.607,42.86c0,0,0.236,0.589,0.539,1.485c0.309,0.896,0.656,2.106,1,3.318
			c0.312,1.222,0.617,2.443,0.799,3.373c0.189,0.928,0.278,1.556,0.278,1.556s-0.237-0.588-0.539-1.485
			c-0.31-0.896-0.657-2.106-1.001-3.318c-0.311-1.221-0.615-2.443-0.796-3.373C52.696,43.489,52.607,42.86,52.607,42.86z"/>
		<path fill="#202A8E" d="M64.395,40.154c0,0-0.712,0.235-1.793,0.531c-1.081,0.303-2.533,0.646-3.988,0.982
			c-1.463,0.304-2.926,0.602-4.033,0.777c-1.105,0.184-1.852,0.268-1.852,0.268s0.713-0.235,1.794-0.531
			c1.079-0.304,2.534-0.646,3.987-0.981c1.462-0.305,2.926-0.601,4.033-0.777C63.649,40.239,64.395,40.154,64.395,40.154z"/>
		<path fill="#202A8E" d="M52.607,42.591c0,0,0.005-0.757,0.071-1.886c0.058-1.131,0.198-2.631,0.346-4.128
			c0.179-1.496,0.365-2.991,0.554-4.106c0.179-1.117,0.338-1.857,0.338-1.857s-0.005,0.757-0.069,1.886
			c-0.059,1.131-0.199,2.63-0.347,4.128c-0.181,1.496-0.366,2.992-0.554,4.107C52.766,41.851,52.607,42.591,52.607,42.591z"/>
		<path fill="#202A8E" d="M60.685,47.728c0,0-0.545-0.248-1.334-0.669c-0.792-0.414-1.816-1.022-2.835-1.634
			c-1.002-0.642-2-1.287-2.726-1.813c-0.728-0.52-1.191-0.898-1.191-0.898s0.546,0.248,1.334,0.669
			c0.794,0.415,1.816,1.021,2.835,1.635c1.002,0.641,2.001,1.288,2.726,1.813C60.221,47.349,60.685,47.728,60.685,47.728z"/>
		<path fill="#202A8E" d="M49.352,51.79c0,0,0.131-0.593,0.382-1.464c0.241-0.872,0.626-2.015,1.016-3.155
			c0.421-1.129,0.849-2.256,1.215-3.085c0.358-0.831,0.635-1.373,0.635-1.373s-0.131,0.593-0.38,1.464
			c-0.243,0.873-0.627,2.017-1.018,3.155c-0.423,1.13-0.85,2.257-1.216,3.085C49.626,51.248,49.352,51.79,49.352,51.79z"/>
	</g>
	<g>
		<path fill="#202A8E" d="M6.952,13.476c4.055,4.08,8.063,8.204,12.023,12.373c3.976,4.154,7.91,8.349,11.813,12.573l-0.1-0.048
			c2.757,0.259,5.512,0.569,8.267,0.866c-2.765-0.179-5.533-0.342-8.295-0.557l-0.056-0.004l-0.043-0.044
			c-4.005-4.127-7.979-8.283-11.909-12.48C14.705,21.974,10.806,17.748,6.952,13.476z"/>
		<path fill="#202A8E" d="M30.675,38.529c0,0-0.146,0.994-0.421,2.472c-0.267,1.48-0.686,3.44-1.112,5.397
			c-0.457,1.951-0.919,3.901-1.315,5.353c-0.387,1.453-0.683,2.414-0.683,2.414s0.146-0.995,0.42-2.473
			c0.267-1.48,0.687-3.44,1.113-5.397c0.457-1.951,0.921-3.901,1.315-5.353C30.38,39.489,30.675,38.529,30.675,38.529z"/>
		<g>
			<g>
				<path fill="none" d="M19.688,15.056"/>
			</g>
		</g>
		<path fill="#202A8E" d="M13.246,36.482c0,0,1.098,0.052,2.738,0.186c1.643,0.127,3.823,0.36,6.004,0.599
			c2.176,0.272,4.354,0.551,5.979,0.807c1.628,0.25,2.708,0.455,2.708,0.455s-1.098-0.051-2.738-0.186
			c-1.643-0.128-3.823-0.36-6.004-0.6c-2.176-0.273-4.354-0.552-5.979-0.809C14.326,36.686,13.246,36.482,13.246,36.482z"/>
		<g>
			<g>
				<path fill="none" d="M7.489,24.825"/>
			</g>
		</g>
		<path fill="#202A8E" d="M30.675,38.529c0,0-0.035-1.06-0.031-2.646c-0.002-1.587,0.057-3.701,0.125-5.813
			c0.099-2.113,0.205-4.224,0.333-5.806c0.121-1.582,0.239-2.635,0.239-2.635s0.035,1.06,0.03,2.646
			c0.004,1.587-0.057,3.701-0.125,5.813c-0.101,2.112-0.206,4.224-0.334,5.806C30.793,37.476,30.675,38.529,30.675,38.529z"/>
		<path fill="#202A8E" d="M18.979,46.463c0,0,1.481-1.087,3.703-2.715c2.231-1.616,5.243-3.719,8.257-5.815
			c3.033-2.069,6.07-4.134,8.376-5.642c2.313-1.496,3.856-2.493,3.856-2.493s-1.481,1.086-3.704,2.715
			c-2.23,1.617-5.242,3.718-8.256,5.815c-3.034,2.069-6.071,4.133-8.376,5.642C20.521,45.466,18.979,46.463,18.979,46.463z"/>
		<path fill="#202A8E" d="M30.675,38.529c0,0,0.698,0.766,1.703,1.948c1.009,1.18,2.305,2.79,3.594,4.406
			c1.264,1.636,2.524,3.275,3.43,4.536c0.912,1.254,1.49,2.114,1.49,2.114s-0.699-0.766-1.703-1.948
			c-1.01-1.179-2.304-2.79-3.594-4.406c-1.264-1.636-2.523-3.275-3.43-4.536C31.254,39.389,30.675,38.529,30.675,38.529z"/>
	</g>
	<path fill="#202A8E" d="M42.663,52.466c-3.198-3.819-4.483-7.667-3.816-11.434c1.102-6.22,7.152-9.774,7.409-9.923l1.453,2.51
		c-0.052,0.031-5.156,3.054-6.009,7.935c-0.503,2.878,0.567,5.923,3.187,9.049L42.663,52.466z"/>
	<path fill="#EA47A4" d="M46.405,34.467c0,0,3.889,7.122-2.629,14.838C43.776,49.305,37.3,41.239,46.405,34.467z"/>
</g>
</svg>
