<?xml version="1.0" encoding="utf-8"?>
<!-- Generator: Adobe Illustrator 16.0.0, SVG Export Plug-In . SVG Version: 6.00 Build 0)  -->
<!DOCTYPE svg PUBLIC "-//W3C//DTD SVG 1.1//EN" "http://www.w3.org/Graphics/SVG/1.1/DTD/svg11.dtd">
<svg version="1.1" id="Layer_1" xmlns="http://www.w3.org/2000/svg" xmlns:xlink="http://www.w3.org/1999/xlink" x="0px" y="0px"
	 width="40px" height="40px" viewBox="0 0 40 40" enable-background="new 0 0 40 40" xml:space="preserve">
<g>
	<g>
		<path fill="#EA47A4" d="M7.277,25.275c0,7.607,6.168,13.775,13.778,13.775c7.608,0,13.777-6.168,13.777-13.775
			c0.166-5.795-3.195-10.604-13.79-23.83C10.55,14.671,7.166,19.48,7.28,25.275H7.277z"/>
		<path fill="#202A8E" d="M21.055,39.875c-8.05,0-14.6-6.551-14.6-14.6l0.01-0.822c0.206-5.735,3.791-10.734,13.934-23.519
			l0.641-0.808l0.644,0.805c10.491,13.095,14.146,18.226,13.972,24.365C35.654,33.324,29.104,39.875,21.055,39.875z M8.115,25.916
			c0.335,6.846,6.011,12.312,12.94,12.312c7.143,0,12.956-5.811,12.956-12.953c0.155-5.492-3.25-10.358-12.966-22.511
			C11.192,15.206,7.995,19.813,8.102,25.258L8.115,25.916z"/>
	</g>
	<g>
		<path fill="#DDF46E" d="M38.546,12.017C13.03,18.6,23.766,28.529,23.766,28.529S34.735,38.326,38.546,12.017z"/>
		<path fill="#202A8E" d="M28.353,31.139C28.351,31.139,28.353,31.139,28.353,31.139c-2.87,0-5.044-1.916-5.135-1.996
			c-0.146-0.137-3.328-3.135-2.322-7.125c1.127-4.468,6.997-8.101,17.445-10.797l1.195-0.309l-0.177,1.223
			C38.104,20.803,35.175,31.139,28.353,31.139z M37.543,13.134c-11.235,3.087-14.4,6.725-15.05,9.272
			c-0.774,3.039,1.807,5.496,1.833,5.521c0.004,0.002,1.797,1.564,4.026,1.564C32.596,29.492,35.842,23.697,37.543,13.134z"/>
	</g>
	<g>
		<path fill="#57DDD0" d="M1.492,5.491c36.862,8.155,21.986,22.904,21.986,22.904S8.26,42.973,1.492,5.491z"/>
		<path fill="#202A8E" d="M16.72,32.008c-9.319,0-13.865-14.341-16.037-26.372l-0.22-1.215l1.206,0.267
			c14.96,3.31,23.455,8.135,25.25,14.342c1.581,5.46-2.682,9.769-2.865,9.951C23.918,29.111,20.848,32.008,16.72,32.008z
			 M2.529,6.569c3.753,19.628,9.765,23.794,14.191,23.794c3.454,0,6.164-2.537,6.191-2.562c0.024-0.025,3.742-3.809,2.426-8.328
			C24.244,15.726,19.376,10.486,2.529,6.569z"/>
	</g>
	<path fill="#473F41" d="M25.372,17.447"/>
	<g opacity="0.8">
		<path fill="#202A8E" d="M28.557,23.312c0,0,0.537-0.65,1.34-1.629c0.811-0.972,1.917-2.243,3.027-3.513
			c1.122-1.256,2.249-2.511,3.114-3.434c0.871-0.917,1.453-1.527,1.453-1.527s-0.535,0.651-1.339,1.629
			c-0.809,0.972-1.915,2.244-3.027,3.512c-1.122,1.257-2.25,2.511-3.116,3.432C29.138,22.701,28.557,23.312,28.557,23.312z"/>
		<g>
			<g>
				<path fill="none" d="M26.716,23.523"/>
			</g>
		</g>
		<path fill="#202A8E" d="M28.562,23.396c0,0,0.134,0.334,0.307,0.844c0.174,0.506,0.372,1.193,0.566,1.881
			c0.177,0.691,0.35,1.385,0.453,1.91c0.107,0.527,0.157,0.883,0.157,0.883s-0.134-0.332-0.306-0.842
			c-0.175-0.508-0.373-1.195-0.567-1.883c-0.177-0.689-0.348-1.383-0.451-1.91C28.613,23.754,28.562,23.396,28.562,23.396z"/>
		<path fill="#202A8E" d="M35.244,21.863c0,0-0.403,0.133-1.016,0.301c-0.614,0.172-1.437,0.365-2.262,0.557
			c-0.83,0.172-1.658,0.34-2.286,0.441c-0.626,0.104-1.05,0.15-1.05,0.15s0.403-0.133,1.018-0.301
			c0.61-0.172,1.436-0.367,2.26-0.557c0.828-0.172,1.658-0.34,2.286-0.441C34.823,21.91,35.244,21.863,35.244,21.863z"/>
		<path fill="#202A8E" d="M28.562,23.244c0,0,0.004-0.43,0.041-1.07c0.032-0.641,0.112-1.49,0.196-2.339
			c0.101-0.848,0.207-1.695,0.314-2.328c0.1-0.633,0.19-1.053,0.19-1.053s-0.003,0.429-0.039,1.07
			c-0.034,0.641-0.112,1.491-0.196,2.34c-0.102,0.848-0.207,1.695-0.314,2.328C28.65,22.824,28.562,23.244,28.562,23.244z"/>
		<path fill="#202A8E" d="M33.142,26.156c0,0-0.309-0.141-0.757-0.381c-0.45-0.232-1.03-0.578-1.606-0.924
			c-0.569-0.363-1.135-0.73-1.546-1.029c-0.412-0.295-0.676-0.51-0.676-0.51s0.311,0.143,0.757,0.381
			c0.449,0.234,1.029,0.578,1.607,0.926c0.567,0.363,1.134,0.73,1.544,1.029C32.877,25.941,33.142,26.156,33.142,26.156z"/>
		<path fill="#202A8E" d="M26.716,28.459c0,0,0.075-0.336,0.216-0.83c0.138-0.494,0.355-1.143,0.577-1.789
			c0.239-0.639,0.481-1.277,0.688-1.748c0.204-0.473,0.359-0.779,0.359-0.779s-0.073,0.338-0.215,0.83
			c-0.137,0.494-0.354,1.145-0.576,1.789c-0.241,0.641-0.482,1.279-0.69,1.748C26.871,28.152,26.716,28.459,26.716,28.459z"/>
	</g>
	<g>
		<path fill="#202A8E" d="M2.679,6.738c2.299,2.313,4.571,4.65,6.816,7.015c2.254,2.355,4.484,4.733,6.698,7.127l-0.057-0.028
			c1.564,0.148,3.125,0.324,4.687,0.492c-1.568-0.1-3.136-0.193-4.702-0.314l-0.032-0.004l-0.024-0.023
			c-2.271-2.34-4.524-4.696-6.752-7.075C7.074,11.556,4.864,9.16,2.679,6.738z"/>
		<path fill="#202A8E" d="M16.128,20.941c0,0-0.083,0.563-0.238,1.403c-0.151,0.838-0.389,1.949-0.631,3.059
			c-0.259,1.105-0.521,2.213-0.745,3.035c-0.22,0.822-0.387,1.367-0.387,1.367s0.082-0.562,0.237-1.4
			c0.152-0.84,0.39-1.951,0.631-3.061c0.259-1.105,0.522-2.211,0.746-3.033C15.961,21.484,16.128,20.941,16.128,20.941z"/>
		<g>
			<g>
				<path fill="none" d="M9.899,7.633"/>
			</g>
		</g>
		<path fill="#202A8E" d="M6.248,19.781c0,0,0.622,0.03,1.553,0.105c0.931,0.072,2.167,0.205,3.403,0.34
			c1.234,0.153,2.469,0.312,3.391,0.458c0.922,0.141,1.535,0.257,1.535,0.257s-0.623-0.028-1.553-0.104
			c-0.931-0.072-2.167-0.205-3.404-0.34c-1.234-0.155-2.467-0.312-3.389-0.458C6.86,19.896,6.248,19.781,6.248,19.781z"/>
		<g>
			<g>
				<path fill="none" d="M2.983,13.172"/>
			</g>
		</g>
		<path fill="#202A8E" d="M16.128,20.941c0,0-0.021-0.601-0.018-1.499c-0.001-0.9,0.033-2.099,0.07-3.296
			c0.056-1.198,0.117-2.395,0.189-3.292c0.068-0.897,0.136-1.494,0.136-1.494s0.021,0.601,0.017,1.5
			c0.002,0.899-0.032,2.098-0.07,3.295c-0.057,1.198-0.117,2.395-0.189,3.292C16.195,20.344,16.128,20.941,16.128,20.941z"/>
		<path fill="#202A8E" d="M9.497,25.439c0,0,0.84-0.617,2.1-1.539c1.265-0.916,2.972-2.109,4.681-3.297
			c1.72-1.173,3.441-2.344,4.749-3.199c1.312-0.848,2.187-1.413,2.187-1.413s-0.841,0.616-2.102,1.539
			c-1.263,0.917-2.97,2.108-4.679,3.296C14.711,22,12.99,23.17,11.684,24.025C10.372,24.873,9.497,25.439,9.497,25.439z"/>
		<path fill="#202A8E" d="M16.128,20.941c0,0,0.396,0.434,0.965,1.104c0.572,0.67,1.307,1.582,2.038,2.498
			c0.717,0.928,1.431,1.857,1.945,2.572c0.518,0.711,0.844,1.199,0.844,1.199s-0.396-0.434-0.964-1.105
			c-0.573-0.668-1.307-1.58-2.038-2.498c-0.717-0.926-1.43-1.857-1.944-2.57C16.456,21.428,16.128,20.941,16.128,20.941z"/>
	</g>
	<path fill="#202A8E" d="M22.925,28.842c-1.813-2.164-2.542-4.346-2.164-6.482c0.624-3.525,4.055-5.541,4.201-5.624l0.822,1.422
		c-0.028,0.018-2.922,1.731-3.405,4.499c-0.285,1.633,0.321,3.357,1.807,5.129L22.925,28.842z"/>
	<path fill="#EA47A4" d="M25.046,18.639c0,0,2.204,4.037-1.491,8.412C23.555,27.051,19.884,22.479,25.046,18.639z"/>
</g>
</svg>
